<svg xmlns="http://www.w3.org/2000/svg" width="663.501" height="128.518"><g style="fill:#000;fill-opacity:1"><path d="M661.04 462.828c.22-.089.58-.089.8 0 .22.089.04.161-.4.161s-.62-.072-.4-.16zm26.24 0c.22-.089.58-.089.8 0 .22.089.04.161-.4.161s-.62-.072-.4-.16zm-268.72-7.269c0-.066.252-.318.56-.56.508-.398.519-.387.12.121-.417.533-.68.703-.68.44zm-57.78-38.279c0-4.84.045-6.82.1-4.4.054 2.42.054 6.38 0 8.8-.055 2.42-.1.44-.1-4.4zm-272.18 2c-.399-.508-.388-.519.12-.12.308.24.56.493.56.56 0 .263-.263.093-.68-.44zm553.469-23.76c0-8.888.04-12.524.09-8.08.05 4.444.05 11.716 0 16.16-.05 4.444-.09.808-.09-8.08zm-315.835-25.6c0-18.744.039-26.412.086-17.04.047 9.372.047 24.708 0 34.08s-.086 1.704-.086-17.04zm190.64 25.6c0-.616.066-.868.147-.56.08.308.08.812 0 1.12-.08.308-.147.056-.147-.56zm-.012-2.08c.006-.528.079-.705.16-.394.08.311.076.743-.012.96-.088.217-.154-.038-.147-.566zm-400.64-.32c.007-.528.079-.705.16-.394.08.311.076.743-.012.96-.088.217-.154-.038-.148-.566zM523.84 369.8c0-.067.252-.32.56-.56.508-.399.519-.388.12.12-.417.533-.68.703-.68.44zm-346.3-10.339c.231-.092.507-.08.613.026.107.106-.082.182-.42.168-.372-.016-.448-.091-.193-.194zm107.52 0c.231-.092.507-.08.613.026.107.106-.082.182-.42.168-.372-.016-.448-.091-.193-.194zM401.2 460.908c.22-.089.58-.089.8 0 .22.089.04.161-.4.161s-.62-.072-.4-.16zm-164-34.889c.308-.08.812-.08 1.12 0 .308.08.056.147-.56.147-.616 0-.868-.066-.56-.147zm105.66-8.739c0-4.84.045-6.82.1-4.4.053 2.42.053 6.38 0 8.8-.055 2.42-.1.44-.1-4.4zm299.085-5.307c.016-.372.091-.448.194-.193.092.231.08.507-.026.613-.106.107-.182-.082-.168-.42zm.083-34.693c0-1.32.056-1.86.125-1.2.07.66.07 1.74 0 2.4-.069.66-.125.12-.125-1.2zm-167.148-4.92c0-.067.252-.32.56-.56.508-.399.519-.388.12.12-.417.533-.68.703-.68.44zm-366.46-12.9c.231-.092.507-.08.613.026.107.106-.082.182-.42.168-.372-.016-.448-.091-.193-.194zm67.82.007c.22-.088.58-.088.8 0 .22.09.04.162-.4.162s-.62-.073-.4-.162zm206.44 95.653c-.399-.508-.388-.519.12-.12.533.417.703.68.44.68-.067 0-.32-.252-.56-.56zm-80-88.96c-.399-.508-.388-.519.12-.12.308.24.56.493.56.56 0 .263-.263.093-.68-.44zm97.58 94.741c.231-.092.507-.08.613.026.107.106-.082.182-.42.168-.372-.016-.448-.091-.193-.194zm2.24 0c.231-.092.507-.08.613.026.107.106-.082.182-.42.168-.372-.016-.448-.091-.193-.194zm16.7-60.382c0-.066.252-.318.56-.56.508-.398.519-.387.12.121-.417.533-.68.703-.68.44zm-208.295-6.466c.016-.372.091-.448.194-.193.092.231.08.507-.026.613-.106.107-.182-.082-.168-.42zm0-2.24c.016-.372.091-.448.194-.193.092.231.08.507-.026.613-.106.107-.182-.082-.168-.42zM92 380.8c.319-.352.651-.64.74-.64.087 0-.101.288-.42.64-.319.352-.651.64-.74.64-.087 0 .101-.288.42-.64zm210.36.08c-.399-.508-.388-.519.12-.12.533.417.703.68.44.68-.067 0-.32-.252-.56-.56zm339.585-6.347c.016-.372.091-.448.194-.193.092.231.08.507-.026.613-.106.107-.182-.082-.168-.42zm80.105-3.733-.61-.72.72.61c.677.572.866.83.61.83-.061 0-.385-.324-.72-.72zm-61.49-1.75a7.07 7.07 0 0 1 1.76 0c.484.074.088.134-.88.134s-1.364-.06-.88-.133zm37.126-3.192c.311-.08.743-.076.96.012.217.088-.038.154-.566.148-.528-.006-.705-.079-.394-.16zM375 455.76c-.399-.508-.388-.519.12-.12.308.24.56.493.56.56 0 .263-.263.093-.68-.44zm161.08-28.78a2.611 2.611 0 0 1 1.12 0c.308.08.056.146-.56.146-.616 0-.868-.066-.56-.147zm69.3.002c.231-.092.507-.08.613.026.107.106-.082.182-.42.168-.372-.016-.448-.091-.193-.194zm93.744-.008c.398-.076.974-.073 1.28.006.306.08-.02.143-.724.14-.704-.004-.954-.07-.556-.146zm-441.499-32.921c.016-.373.091-.449.194-.194.092.231.08.507-.026.614-.106.106-.182-.083-.168-.42zm-46.694-1.093c0-.44.072-.62.16-.4.09.22.09.58 0 .8-.088.22-.16.04-.16-.4zm46.694-1.467c.016-.372.091-.448.194-.193.092.231.08.507-.026.613-.106.107-.182-.082-.168-.42zM151.52 369.28c.319-.352.651-.64.74-.64.087 0-.101.288-.42.64-.319.352-.651.64-.74.64-.087 0 .101-.288.42-.64zm49.72-.24c-.399-.508-.388-.519.12-.12.533.417.703.68.44.68-.067 0-.32-.252-.56-.56zm19.075 3.76c0-20.328.038-28.644.085-18.48.047 10.164.047 26.796 0 36.96-.047 10.164-.085 1.848-.085-18.48zm-83.97 21.573c.016-.372.091-.448.194-.193.092.231.08.507-.026.613-.106.107-.182-.082-.168-.42zm121.28-1.6c.016-.372.091-.448.194-.193.092.231.08.507-.026.613-.106.107-.182-.082-.168-.42zm-121.28-.96c.016-.372.091-.448.194-.193.092.231.08.507-.026.613-.106.107-.182-.082-.168-.42zm248-7.36c.016-.372.091-.448.194-.193.092.231.08.507-.026.613-.106.107-.182-.082-.168-.42zM512.32 372.04c0-.067.252-.32.56-.56.508-.399.519-.388.12.12-.417.533-.68.703-.68.44zM126.4 418.12c0-.067.252-.32.56-.56.508-.399.519-.388.12.12-.417.533-.68.703-.68.44zm553.423-22.28c0-5.72.043-8.06.096-5.2.053 2.86.053 7.54 0 10.4-.053 2.86-.096.52-.096-5.2zm-280.697 8.738c.311-.08.743-.076.96.012.217.088-.038.154-.566.148-.528-.006-.705-.079-.394-.16zM136.382 393.12c.007-.528.079-.705.16-.394.08.311.076.743-.012.96-.088.217-.154-.038-.148-.566zm264.502 70.974c.398-.077.974-.074 1.28.006.306.08-.02.142-.724.139-.704-.004-.954-.07-.556-.146zm-30.619-19.48c.016-.373.091-.45.194-.194.092.231.08.507-.026.613-.106.107-.182-.082-.168-.42zM177.86 426.02c.231-.092.507-.08.613.026.107.106-.082.182-.42.168-.372-.016-.448-.091-.193-.194zm451.723-42.981c0-5.544.043-7.812.096-5.04a313.62 313.62 0 0 1 0 10.08c-.053 2.772-.096.504-.096-5.04zM73.06 335.76c2.783-.053 7.247-.053 9.92 0 2.673.054.396.098-5.06.098-5.456 0-7.643-.044-4.86-.097zm152.14 0c2.684-.053 7.076-.053 9.76 0 2.684.054.488.098-4.88.098s-7.564-.044-4.88-.097zm86.4 0c2.684-.053 7.076-.053 9.76 0 2.684.054.488.098-4.88.098s-7.564-.044-4.88-.097zm-110.32 81.08c0-.067.252-.32.56-.56.508-.399.519-.388.12.12-.417.533-.68.703-.68.44zm-95.12 9.188c.22-.089.58-.089.8 0 .22.089.04.161-.4.161s-.62-.072-.4-.16zm70.08 0c.22-.089.58-.089.8 0 .22.089.04.161-.4.161s-.62-.072-.4-.16zm111.36 0c.22-.089.58-.089.8 0 .22.089.04.161-.4.161s-.62-.072-.4-.16zm35.986-.025a54.31 54.31 0 0 1 4.48 0c1.284.061.318.111-2.146.112-2.464 0-3.514-.05-2.334-.111zm23.873-.003c2.519-.054 6.551-.054 8.96 0 2.41.055.349.099-4.579.099s-6.9-.045-4.38-.099zm-40.763-32.08c0-3.784.046-5.332.103-3.44.056 1.892.056 4.988 0 6.88-.057 1.892-.103.344-.103-3.44zm-28.91-.827c.015-.372.09-.448.193-.193.092.231.08.507-.026.613-.106.107-.182-.082-.168-.42zm-91.907-13.173c-.398-.508-.387-.519.121-.12.308.24.56.493.56.56 0 .263-.263.093-.68-.44zm403.961-15.98a2.611 2.611 0 0 1 1.12 0c.308.08.056.146-.56.146-.616 0-.868-.066-.56-.147zm42.88 0a2.611 2.611 0 0 1 1.12 0c.308.08.056.146-.56.146-.616 0-.868-.066-.56-.147zm35.595 50.78c0-22.264.038-31.372.085-20.24.047 11.132.047 29.348 0 40.48-.047 11.132-.085 2.024-.085-20.24zM469.907 400c0-8.008.042-11.284.093-7.28.05 4.004.05 10.556 0 14.56-.051 4.004-.093.728-.093-7.28zm-230.073-31.04c0-18.216.039-25.668.086-16.56.047 9.108.047 24.012 0 33.12-.047 9.108-.086 1.656-.086-16.56zm-49.089 23.813c.016-.372.091-.448.194-.193.092.231.08.507-.026.613-.106.107-.182-.082-.168-.42zm207.895-27.865c.22-.089.58-.089.8 0 .22.089.04.161-.4.161s-.62-.072-.4-.16zm162.92 7.012c-.399-.508-.388-.519.12-.12.308.24.56.493.56.56 0 .263-.263.093-.68-.44zm-135.32 83.64c0-.067.252-.32.56-.56.508-.399.519-.388.12.12-.417.533-.68.703-.68.44zm97.56-36.28c-.399-.508-.388-.519.12-.12.533.417.703.68.44.68-.067 0-.32-.252-.56-.56zm-54.015-4.427c.016-.372.091-.448.194-.193.092.231.08.507-.026.613-.106.107-.182-.082-.168-.42zm128.762-21.893c0-7.832.042-11.036.093-7.12.05 3.916.05 10.324 0 14.24-.051 3.916-.093.712-.093-7.12zm-48.508-23.6c-.398-.508-.387-.519.121-.12.308.24.56.493.56.56 0 .263-.263.093-.68-.44zm-77.079.76c0-.067.252-.32.56-.56.508-.399.519-.388.12.12-.417.533-.68.703-.68.44zm-206.08-2.24c0-.067.252-.32.56-.56.508-.399.519-.388.12.12-.417.533-.68.703-.68.44zM72.42 424.72a228.26 228.26 0 0 1 8.64.001c2.32.055.332.1-4.42.099-4.752 0-6.651-.045-4.22-.1zm327.52-6.379c.231-.092.507-.08.613.026.107.106-.082.182-.42.168-.372-.016-.448-.091-.193-.194zm-52.48-9.94c2.518-.054 6.55-.054 8.96 0 2.409.054.348.098-4.58.098s-6.9-.044-4.38-.098zm251.014-30.481c0-.616.066-.868.147-.56.08.308.08.812 0 1.12-.08.308-.147.056-.147-.56zm-37.034 39.04c.319-.352.651-.64.74-.64.087 0-.101.288-.42.64-.319.352-.651.64-.74.64-.087 0 .101-.288.42-.64zm-183.52-46.2c0-.067.252-.32.56-.56.508-.399.519-.388.12.12-.417.533-.68.703-.68.44z" style="fill:#000;fill-opacity:1;stroke-width:.32" transform="translate(-68.16 -335.72)"/><path d="M393.535 463.51c-7.987-1.089-14.167-3.746-18.202-7.827-3.502-3.541-4.997-7.413-4.693-12.152.398-6.194 4.212-10.518 9.558-10.834 2.517-.148 5.082.756 5.082 1.791 0 .346-1.012 1.513-2.369 2.732-3.186 2.864-4.031 4.553-4.031 8.065 0 1.431.228 3.38.508 4.337 2.256 7.713 11.153 11.946 23.972 11.406 6.866-.29 11.65-1.953 15.277-5.31 3.306-3.061 4.723-6.432 4.723-11.233 0-7.343-3.396-11.22-11.216-12.802-1.802-.365-6.451-.818-11.504-1.121-14.914-.895-18.807-1.792-22.411-5.163-2.197-2.056-2.98-4.046-3.003-7.639-.016-2.474.101-3.138.835-4.71.47-1.007 1.53-2.488 2.357-3.29 1.522-1.48 5.828-3.81 7.754-4.194.565-.113 1.028-.3 1.028-.415 0-.115-.942-.619-2.094-1.12-6.43-2.802-10.441-7.26-11.864-13.187-.717-2.99-.725-8.603-.014-11.324.996-3.816 2.295-5.985 5.462-9.123 3.135-3.105 5.615-4.727 9.553-6.248 3.894-1.504 6.655-2.005 11.117-2.015 6.126-.014 11.636 1.576 16.474 4.754 1.2.787 2.203 1.432 2.231 1.432.027 0 1.698-.94 3.712-2.091 4.547-2.596 6.985-3.402 10.413-3.445 2.265-.029 2.827.086 4.48.912 1.525.762 2.03 1.22 2.61 2.372 1.435 2.846.638 5.924-1.729 6.673-1.963.621-3.536.085-5.784-1.973-2.812-2.574-3.188-2.768-5.375-2.768-1.44 0-2.368.21-3.566.807-2.8 1.395-2.848 1.561-1.213 4.155 2.885 4.575 4.028 9.742 3.364 15.203-.781 6.423-3.483 11.008-8.42 14.29-4.645 3.088-10.326 4.532-20.54 5.22-2.982.201-6.15.502-7.04.67-4.929.925-6.897 2.498-6.897 5.51 0 1.28.16 1.714.905 2.46.498.497 1.47 1.072 2.16 1.277.69.205 5.071.498 9.735.65 17.102.558 22.543 1.36 28.413 4.19 4.7 2.266 7.583 5.773 8.918 10.848.746 2.838.744 8.977-.003 12-2.38 9.627-11.094 16.283-23.888 18.25-3.684.565-10.562.557-14.785-.02zm10.563-59.613c4.933-1.885 8.046-7.02 9.035-14.902 1.047-8.346-.92-15.898-5.263-20.21-3.2-3.178-6.82-4.392-10.986-3.685-5.926 1.005-10.068 5.334-11.816 12.349-.837 3.36-.759 11.609.142 14.917 1.762 6.47 5.494 10.62 10.79 12.003 2.144.56 5.983.336 8.098-.472zm254.92 58.407c-.645-.36-.569-1.102.15-1.487.336-.18 1.767-.456 3.182-.614 2.92-.327 4.355-1.043 5.33-2.66.631-1.049.64-1.63.64-43.143 0-46.082.123-43.14-1.863-44.611-.74-.549-1.517-.698-4.32-.829-3.24-.152-3.422-.197-3.519-.877-.123-.864.34-1.092 4.102-2.017 1.496-.368 5.508-1.465 8.915-2.437 4.63-1.32 6.287-1.675 6.56-1.403.232.232.423 2.409.525 5.99l.16 5.626 1.248-1.815c3.042-4.42 8.191-7.993 13.472-9.345 3.502-.896 10.276-.762 14.244.282 12.232 3.218 20.699 12.477 23.242 25.416.88 4.476.734 11.228-.331 15.297-2.978 11.374-10.983 19.194-22.82 22.29-2.423.634-3.573.734-8.255.72-4.544-.013-5.862-.13-8-.709-3.503-.949-6.798-2.673-9.114-4.768l-1.941-1.757.088 18.73c.085 18.349.1 18.749.747 19.614 1.23 1.647 2.168 2.102 4.905 2.378 3.458.349 3.875.504 3.875 1.447 0 .428-.18.792-.4.808-2.364.18-30.482.065-30.823-.126zm43.235-39.754c2.933-.753 5.129-1.963 7.372-4.061 3.6-3.368 5.795-7.542 7.27-13.83.593-2.522.682-3.897.693-10.579.013-8.46-.28-10.63-2.132-15.754-2.93-8.107-9.104-12.578-17.347-12.56-9.32.02-15.058 4.363-17.537 13.274-.686 2.463-.713 3.086-.722 16.48-.01 12.292.056 14.178.556 16.127 1.538 5.992 5.256 9.618 11.18 10.905 2.786.605 8.309.604 10.667-.003zm-171.483 3.841c-22.119-4.192-33.69-26.972-23.702-46.658 7.972-15.714 29.104-22.37 45.323-14.277 3.734 1.864 5.835 3.34 8.834 6.21 7.53 7.205 10.916 17.377 9.2 27.636-1.246 7.454-4.095 12.93-9.369 18.007-4.557 4.387-9.817 7.225-16 8.633-3.821.87-10.893 1.092-14.286.45zm13.044-2.999c6.647-2.37 10.706-7.775 12.687-16.895.852-3.917 1.226-15.62.645-20.123-.939-7.273-3.344-13.294-6.65-16.65-3.663-3.717-8.837-5.514-14.81-5.142-5.114.318-8.757 1.941-11.951 5.327-4.432 4.698-6.494 11.38-6.835 22.146-.578 18.3 4.306 28.83 14.672 31.635 3.188.863 9.412.712 12.242-.298zm57.146 3.01c-7.19-1.443-11.868-5.793-13.83-12.862-.669-2.41-.7-3.24-.872-23.035l-.178-20.534-.8-.86c-1.055-1.133-1.775-1.381-5.53-1.908-1.736-.244-3.362-.614-3.613-.822-.252-.209-.457-.787-.457-1.285 0-1.376 1.102-1.53 8.65-1.203 3.734.161 7.857.163 9.59.005 3.229-.296 4.257-.12 4.742.807.187.359.186 3.647-.003 8.735-.167 4.488-.244 14.784-.171 22.88.123 13.722.177 14.887.803 17.182.817 2.991 1.355 4.07 2.864 5.74 2.037 2.255 3.218 2.679 7.444 2.674 3.02-.004 4.073-.14 5.874-.758 7.39-2.536 11.926-9.538 13.709-21.158.292-1.907.417-6.688.417-16 0-14.881.02-14.746-2.272-15.834-.65-.308-2.605-.746-4.346-.973-3.389-.443-4.102-.776-4.102-1.913 0-1.46.654-1.612 6.21-1.443 6.066.185 9.552.19 13.4.02 1.825-.082 2.936.002 3.172.237.264.264.37 7.493.39 26.535.026 24.35.067 26.243.591 27.202.89 1.628 1.499 1.797 5.56 1.547l3.613-.222.22.871c.12.48.083 1.086-.081 1.347-.183.29-3.165 1.192-7.648 2.314-4.04 1.011-8.174 2.153-9.186 2.538-2.237.851-3.147.763-3.682-.357-.45-.943-1.204-5.948-1.546-10.269-.121-1.54-.32-2.8-.441-2.8s-.922 1.108-1.78 2.461c-5.1 8.052-11.894 11.688-21.653 11.59-1.639-.017-3.915-.219-5.06-.448zm-500.206-.966c-5.853-1.165-11.303-4.721-14.458-9.432l-1.176-1.755v10.391H68.16V336h19.52l.001 17.68.002 17.68.953-1.438c2.96-4.46 7.638-7.815 13.025-9.341 3.311-.939 10.066-1.011 13.2-.143 9.206 2.551 16.18 9.697 19.515 19.995 1.483 4.577 1.785 6.777 1.768 12.847-.018 6.158-.464 8.73-2.368 13.67-3.039 7.878-9.664 14.523-17.233 17.283-4.558 1.663-11.014 2.154-15.79 1.203zm4.414-16.282c2.568-.684 4.79-2.063 6.817-4.229 3.05-3.26 4.495-7.054 4.495-11.805 0-3.166-.605-5.653-2.14-8.8-3.494-7.158-11.201-10.066-17.989-6.787-2.36 1.14-6.273 5.052-7.634 7.632l-1.037 1.965v14l.843 1.275c2.072 3.132 5.137 5.542 8.36 6.573 2.216.708 5.984.787 8.285.175zm64.272 16.258c-10.381-1.83-19.048-8.117-23.34-16.932-2.512-5.158-3.474-9.509-3.47-15.68.007-10.44 3.948-19.257 11.373-25.439 2.848-2.372 8.989-5.493 12.557-6.383 13.205-3.293 26.255-.182 34.744 8.284 4.149 4.138 6.943 9.048 8.529 14.992.733 2.744.831 3.74.847 8.546.019 5.909-.451 8.683-2.241 13.226-4.046 10.27-13.342 17.547-24.786 19.403-3.716.602-10.742.594-14.213-.018zm12.64-16.819c3.649-1.707 6.336-4.926 7.887-9.448.75-2.187.857-2.993.846-6.345-.016-4.538-.815-7.529-2.819-10.547-4.614-6.952-14.292-8.175-20.29-2.564-3.564 3.334-5.218 7.469-5.243 13.111-.026 5.571 1.415 9.668 4.498 12.796 2.992 3.034 5.59 4.033 10.161 3.908 2.65-.073 3.502-.229 4.96-.911zm50.961 16.871c-6.535-1.248-10.754-5.312-12.098-11.652-.374-1.767-.453-8.618-.457-39.972L220.48 336h19.183l.089 34.32c.084 32.65.117 34.386.683 35.681.79 1.805 2.067 2.825 4.08 3.257 1.797.385 4.61.042 6.652-.81.6-.251 1.163-.385 1.25-.297.088.087.713 3.285 1.39 7.106.955 5.4 1.14 7.005.831 7.206-.863.56-6.463 2.2-9.115 2.668-4.054.717-9.689.867-12.482.333zm49.785.148c-14.831-2.693-24.865-15.873-24.9-32.709-.02-9.911 3.12-18.602 8.917-24.673 5.138-5.382 10.76-8.02 17.957-8.428 6.78-.385 13.106 1.907 17.775 6.438 1.088 1.056 2.43 2.632 2.982 3.503l1.003 1.582V336h19.52v34.57c0 29.154.071 34.741.455 35.659.468 1.12 1.884 2.091 3.05 2.091.644 0 .655.142.655 8.8v8.8l-5.36-.004c-5.877-.004-7.589-.3-10.322-1.788-2.877-1.566-4.036-3.56-4.704-8.093l-.254-1.724-1.253 1.824c-2.785 4.057-7.887 7.547-13.147 8.993-2.203.605-10.02.911-12.374.484zm16.054-17.172c2.905-1.373 5.131-3.244 6.678-5.612l1.322-2.023v-13.503l-1.025-2.05c-1.386-2.775-4.886-6.258-7.625-7.589-5.21-2.53-10.504-1.767-14.76 2.128-3.733 3.42-5.468 7.57-5.502 13.169-.032 5.152 1.3 8.828 4.38 12.084 3.158 3.34 6.343 4.604 11.252 4.468 2.803-.078 3.458-.21 5.28-1.072zm44.16 8.84v-8.64h17.6v17.28h-17.6zm104.56 7.554c-1.08-1.079-.407-1.518 3.71-2.428.851-.188 2.005-.533 2.564-.766 1.351-.565 2.971-2.455 3.387-3.951.44-1.585.446-36.527.007-39.609-.602-4.218-1.648-6.398-3.541-7.377-.515-.266-2.43-.754-4.255-1.083-3.731-.672-4.672-1.058-4.672-1.912 0-.734.959-1.12 4.48-1.798 1.496-.289 5.874-1.311 9.73-2.273 3.855-.96 7.193-1.677 7.417-1.59.46.175.543.731 1.262 8.353.282 2.992.583 5.652.669 5.91.096.29.6-.324 1.312-1.6.682-1.222 2.28-3.197 3.903-4.822 2.208-2.212 3.28-3.012 5.467-4.077 3.674-1.79 5.853-2.291 9.953-2.291 7.195 0 10.888 2.4 10.932 7.104.028 2.94-1.656 4.746-4.632 4.966-2.333.173-3.356-.549-5.508-3.885-2.2-3.409-3.488-4.206-6.324-3.91-5.849.612-11.036 5.697-12.977 12.721-.508 1.839-.564 3.812-.564 19.644 0 16.09.048 17.726.568 19.072.951 2.465 2.224 3.224 6.152 3.67 2.19.249 3.04.6 3.04 1.258 0 .955-1.285 1.214-4.94.996-4.536-.27-19.202-.27-23.39.003-2.757.178-3.295.132-3.75-.324z" style="fill:#000;fill-opacity:1;stroke-width:.32" transform="translate(-68.16 -335.72)"/></g></svg>