<svg xmlns="http://www.w3.org/2000/svg" width="377.952" height="453.541"><defs><linearGradient id="b" x1="0" x2="1" y1="0" y2="0" gradientTransform="matrix(0 130.493 130.493 0 180.968 246.102)" gradientUnits="userSpaceOnUse" spreadMethod="pad"><stop offset="0" style="stop-opacity:1;stop-color:#2e89af"/><stop offset=".088" style="stop-opacity:1;stop-color:#ace4fa"/><stop offset=".12" style="stop-opacity:1;stop-color:#ace4fa"/><stop offset=".326" style="stop-opacity:1;stop-color:#59caf5"/><stop offset=".4" style="stop-opacity:1;stop-color:#59caf5"/><stop offset=".6" style="stop-opacity:1;stop-color:#59caf5"/><stop offset=".674" style="stop-opacity:1;stop-color:#59caf5"/><stop offset=".88" style="stop-opacity:1;stop-color:#ace4fa"/><stop offset=".912" style="stop-opacity:1;stop-color:#ace4fa"/><stop offset="1" style="stop-opacity:1;stop-color:#2e89af"/></linearGradient><linearGradient id="c" x1="0" x2="1" y1="0" y2="0" gradientTransform="matrix(0 130.39874 130.39874 0 212.338 246.383)" gradientUnits="userSpaceOnUse" spreadMethod="pad"><stop offset="0" style="stop-opacity:1;stop-color:#2e89af"/><stop offset=".088" style="stop-opacity:1;stop-color:#ace4fa"/><stop offset=".12" style="stop-opacity:1;stop-color:#ace4fa"/><stop offset=".326" style="stop-opacity:1;stop-color:#59caf5"/><stop offset=".4" style="stop-opacity:1;stop-color:#59caf5"/><stop offset=".6" style="stop-opacity:1;stop-color:#59caf5"/><stop offset=".674" style="stop-opacity:1;stop-color:#59caf5"/><stop offset=".88" style="stop-opacity:1;stop-color:#ace4fa"/><stop offset=".912" style="stop-opacity:1;stop-color:#ace4fa"/><stop offset="1" style="stop-opacity:1;stop-color:#2e89af"/></linearGradient><linearGradient id="d" x1="0" x2="1" y1="0" y2="0" gradientTransform="matrix(0 130.58679 130.58679 0 153.35 245.821)" gradientUnits="userSpaceOnUse" spreadMethod="pad"><stop offset="0" style="stop-opacity:1;stop-color:#2e89af"/><stop offset=".088" style="stop-opacity:1;stop-color:#ace4fa"/><stop offset=".12" style="stop-opacity:1;stop-color:#ace4fa"/><stop offset=".326" style="stop-opacity:1;stop-color:#59caf5"/><stop offset=".4" style="stop-opacity:1;stop-color:#59caf5"/><stop offset=".6" style="stop-opacity:1;stop-color:#59caf5"/><stop offset=".674" style="stop-opacity:1;stop-color:#59caf5"/><stop offset=".88" style="stop-opacity:1;stop-color:#ace4fa"/><stop offset=".912" style="stop-opacity:1;stop-color:#ace4fa"/><stop offset="1" style="stop-opacity:1;stop-color:#2e89af"/></linearGradient><linearGradient id="e" x1="0" x2="1" y1="0" y2="0" gradientTransform="scale(41.18576 -41.18576) rotate(-22.5 -16.462 -18.157)" gradientUnits="userSpaceOnUse" spreadMethod="pad"><stop offset="0" style="stop-opacity:1;stop-color:#59caf5"/><stop offset=".2" style="stop-opacity:1;stop-color:#59caf5"/><stop offset=".329" style="stop-opacity:1;stop-color:#59caf5"/><stop offset=".69" style="stop-opacity:1;stop-color:#ace4fa"/><stop offset=".772" style="stop-opacity:1;stop-color:#ace4fa"/><stop offset="1" style="stop-opacity:1;stop-color:#2e89af"/></linearGradient><linearGradient id="f" x1="0" x2="1" y1="0" y2="0" gradientTransform="scale(61.46006 -61.46006) rotate(-22.5 -9.743 -11.559)" gradientUnits="userSpaceOnUse" spreadMethod="pad"><stop offset="0" style="stop-opacity:1;stop-color:#59caf5"/><stop offset=".3" style="stop-opacity:1;stop-color:#59caf5"/><stop offset=".421" style="stop-opacity:1;stop-color:#59caf5"/><stop offset=".76" style="stop-opacity:1;stop-color:#ace4fa"/><stop offset=".823" style="stop-opacity:1;stop-color:#ace4fa"/><stop offset="1" style="stop-opacity:1;stop-color:#2e89af"/></linearGradient><linearGradient id="g" x1="0" x2="1" y1="0" y2="0" gradientTransform="scale(81.58142 -81.58142) rotate(-22.5 -6.365 -8.244)" gradientUnits="userSpaceOnUse" spreadMethod="pad"><stop offset="0" style="stop-opacity:1;stop-color:#76d3f6"/><stop offset=".166" style="stop-opacity:1;stop-color:#59caf5"/><stop offset=".4" style="stop-opacity:1;stop-color:#59caf5"/><stop offset=".508" style="stop-opacity:1;stop-color:#59caf5"/><stop offset=".81" style="stop-opacity:1;stop-color:#ace4fa"/><stop offset=".86" style="stop-opacity:1;stop-color:#ace4fa"/><stop offset="1" style="stop-opacity:1;stop-color:#2e89af"/></linearGradient><clipPath id="a" clipPathUnits="userSpaceOnUse"><path d="M0 472.45h419.529V0H0Z"/></clipPath></defs><g clip-path="url(#a)" transform="matrix(1.33333 0 0 -1.33333 -90.71 584.58)"><path d="M0 0c0-6.262-5.076-11.338-11.338-11.338h-260.787c-6.262 0-11.339 5.076-11.339 11.338v317.48c0 6.262 5.077 11.338 11.339 11.338h260.787C-5.076 328.818 0 323.742 0 317.48Z" style="fill:#fbbc09;fill-opacity:1;fill-rule:nonzero;stroke:none" transform="translate(351.497 109.616)"/><path d="M0 0a7.654 7.654 0 0 0-7.654-7.654h-240.944A7.653 7.653 0 0 0-256.251 0v298.204a7.652 7.652 0 0 0 7.653 7.653H-7.654A7.653 7.653 0 0 0 0 298.204z" style="fill:#f46b17;fill-opacity:1;fill-rule:nonzero;stroke:none" transform="translate(337.89 119.255)"/><path d="M0 0a5.67 5.67 0 0 0-5.67-5.67h-224.786a5.67 5.67 0 0 0-5.67 5.67v282.613a5.67 5.67 0 0 0 5.67 5.67H-5.67a5.67 5.67 0 0 0 5.67-5.67z" style="fill:#e31b22;fill-opacity:1;fill-rule:nonzero;stroke:none" transform="translate(327.828 127.05)"/><path d="M0 0a4.251 4.251 0 0 0-4.252-4.252h-211.464A4.252 4.252 0 0 0-219.968 0v269.858a4.252 4.252 0 0 0 4.252 4.252H-4.252A4.252 4.252 0 0 0 0 269.858z" style="fill:#142354;fill-opacity:1;fill-rule:nonzero;stroke:none" transform="translate(319.749 133.428)"/><path d="M0 0v16.334h-11.496V0h-10.875v41.633h10.875V25.6H0v16.033h10.854V0Z" style="fill:#fff;fill-opacity:1;fill-rule:nonzero;stroke:none" transform="translate(141.82 178.608)"/><path d="M0 0v41.633h27.174v-8.88H10.852v-7.372h14.247V16.5H10.852l-.001-7.618h16.725V0Z" style="fill:#fff;fill-opacity:1;fill-rule:nonzero;stroke:none" transform="translate(235.323 178.608)"/><path d="M0 0h3.957C8.07 0 9.703 1.693 9.703 6.178c0 4.146-1.498 5.798-5.746 5.798H0Zm11.701-20.777c-1.09 4.474-4.443 10.454-7.076 12.302H0v-12.302h-10.854v41.632H5.271c9.854 0 15.129-4.488 15.129-13.816 0-5.388-1.562-9.252-5.572-12.228l-.166-.125.156-.142c2.996-2.68 7.287-10.446 8.346-15.321z" style="fill:#fff;fill-opacity:1;fill-rule:nonzero;stroke:none" transform="translate(280.536 199.386)"/><path d="M0 0c-5.985 0-6.933-4.834-6.933-12.638 0-7.831.948-12.693 6.933-12.693 5.983 0 6.932 4.862 6.932 12.693C6.932-4.834 5.983 0 0 0m0-34.209c-11.677 0-17.916 7.07-17.916 21.571 0 14.38 6.239 21.515 17.916 21.515 11.675 0 17.914-7.135 17.914-21.515 0-14.501-6.239-21.571-17.914-21.571" style="fill:#fff;fill-opacity:1;fill-rule:nonzero;stroke:none" transform="translate(177.06 212)"/><path d="M0 0v30.576c0 6.891 3.663 11.057 10.326 11.057h18.278l-1.914-8.88H15.06c-3.227 0-4.209-1.016-4.209-4.355v-5.054h14.182v-8.881H10.851V0Z" style="fill:#fff;fill-opacity:1;fill-rule:nonzero;stroke:none" transform="translate(201.452 178.608)"/></g><path d="M203.797 376.595c-9.783 0-13.722-6.733-17.387-17.506l-33.351-98.175c-2.862-8.434-6.489-13.545-12.565-14.273v-.539c2.821-.002 16.727 0 17.311 0 9.782 0 13.725 6.733 17.388 17.504l33.351 98.179c2.858 8.432 6.821 13.533 12.897 14.271v.539z" style="fill:url(#b);stroke:none" transform="matrix(1.33333 0 0 -1.33333 -90.71 584.58)"/><path d="M235.154 376.781c-9.783 0-13.722-6.733-17.386-17.505l-33.327-98.082c-2.861-8.434-6.488-13.545-12.563-14.273v-.537c2.819-.002 16.724 0 17.31 0 9.781 0 13.722 6.732 17.386 17.504l33.326 98.084c2.86 8.431 6.822 13.533 12.898 14.271v.538l-5.698.001-11.946-.001" style="fill:url(#c);stroke:none" transform="matrix(1.33333 0 0 -1.33333 -90.71 584.58)"/><path d="M172.458 376.408c-9.781 0-13.723-6.733-17.387-17.507l-38.456-113.079h9.799c9.784 0 13.724 6.732 17.387 17.504l33.385 98.271c2.861 8.433 6.822 13.535 12.899 14.271v.54z" style="fill:url(#d);stroke:none" transform="matrix(1.33333 0 0 -1.33333 -90.71 584.58)"/><path d="m240.36 339.23-6.873-20.231h34.12c4.912 0 8.877-.641 11.638-4.31h.606s-6.852 14.416-7.728 16.202c-3.63 7.401-7.539 8.339-14.376 8.339z" style="fill:url(#e);stroke:none" transform="matrix(1.33333 0 0 -1.33333 -90.71 584.58)"/><path d="m230.435 310.017-6.873-20.229H279.7c5.05 0 8.792-.742 11.622-4.445h.606s-6.561 14.56-7.417 16.356c-3.409 7.148-7.514 8.318-14.381 8.318z" style="fill:url(#f);stroke:none" transform="matrix(1.33333 0 0 -1.33333 -90.71 584.58)"/><path d="m220.455 280.643-5.693-16.755a91.902 91.902 0 0 0-1.254-3.475h78.361c4.566 0 8.332-.806 11.227-4.576h.605s-6.09 14.744-6.492 15.646c-3.557 7.971-7.976 9.16-14.844 9.16z" style="fill:url(#g);stroke:none" transform="matrix(1.33333 0 0 -1.33333 -90.71 584.58)"/></svg>