<?xml version="1.0" encoding="UTF-8" standalone="no"?>
<svg
 version="1.1"
 id="svg2"
 width="451.67184"
 height="139.95026"
 viewBox="0 0 451.67185 139.95026"
 xmlns="http://www.w3.org/2000/svg"
 xmlns:svg="http://www.w3.org/2000/svg">
 <defs>
 <clipPath clipPathUnits="userSpaceOnUse">
 <path  d="M 0,104.963 H 338.754 V 0 H 0 Z" />
 </clipPath>
 </defs>
 <g transform="matrix(1.3333333,0,0,-1.3333333,0,139.95026)">
 <g>
 <g clip-path="url(#clipPath18)">
 <g transform="translate(33.1678,65.826)">
 <path d="m 0,0 22.967,31.036 c 0.977,1.32 0.035,3.19 -1.607,3.19 H 7.382 c -0.639,0 -1.237,-0.314 -1.6,-0.839 L -14.787,3.647 c -0.041,-0.06 -0.081,-0.125 -0.115,-0.189 -0.466,-0.864 -0.866,-1.623 -1.201,-2.278 -0.348,-0.679 -0.627,-1.245 -0.836,-1.697 H -17.2 v -4.077 h 0.261 c 0.418,-0.974 0.791,-1.801 1.123,-2.481 0.33,-0.679 0.619,-1.193 0.862,-1.541 L 6.775,-39.861 c 0.364,-0.522 0.96,-0.834 1.597,-0.834 h 15.603 c 1.588,0 2.506,1.799 1.575,3.085 L -0.012,-2.298 C -0.509,-1.611 -0.504,-0.681 0,0"
 style="fill:#000000;fill-opacity:1;fill-rule:nonzero;stroke:none"/>
 </g>
 <g transform="translate(66.9075,27.1309)">
 <path d="m 0,0 v 75.205 c 0,1.105 0.895,2 2,2 h 11.986 c 1.105,0 2,-0.895 2,-2 V 0 c 0,-1.105 -0.895,-2 -2,-2 H 2 C 0.895,-2 0,-1.105 0,0"
 style="fill:#000000;fill-opacity:1;fill-rule:nonzero;stroke:none"/>
 </g>
 <g transform="translate(97.9573,25.1309)">
 <path d="m 0,0 h 11.935 c 1.104,0 2,0.895 2,2 v 50.807 c 0,1.104 -0.896,2 -2,2 H 0 c -1.105,0 -2,-0.896 -2,-2 V 2 C -2,0.895 -1.105,0 0,0"
 style="fill:#000000;fill-opacity:1;fill-rule:nonzero;stroke:none"/>
 </g>
 <g transform="translate(104.0559,87.3037)">
 <path d="m 0,0 c 2.786,0 5.059,0.827 6.817,2.481 1.759,1.655 2.639,3.771 2.639,6.348 0,2.613 -0.88,4.737 -2.639,6.375 -1.758,1.637 -4.031,2.455 -6.817,2.455 -2.787,0 -5.061,-0.818 -6.818,-2.455 -1.76,-1.638 -2.639,-3.762 -2.639,-6.375 0,-2.508 0.879,-4.606 2.639,-6.295 C -5.061,0.844 -2.787,0 0,0"
 style="fill:#e64196;fill-opacity:1;fill-rule:nonzero;stroke:none"/>
 </g>
 <g transform="translate(141.3616,54.127)">
 <path d="m 0,0 v -4.754 c 0,-3.866 1.053,-7.045 3.161,-9.535 2.107,-2.49 4.867,-3.735 8.281,-3.735 4.005,0 7.122,1.549 9.352,4.649 2.228,3.101 3.344,7.489 3.344,13.166 0,4.981 -0.985,8.733 -2.952,11.26 -1.968,2.524 -4.885,3.787 -8.751,3.787 -3.693,0 -6.688,-1.358 -8.987,-4.074 C 1.149,8.047 0,4.459 0,0 M 0.47,-22.413 H 0.261 v -29.191 c 0,-1.104 -0.896,-2 -2,-2 h -11.987 c -1.104,0 -2,0.896 -2,2 v 75.415 c 0,1.104 0.896,2 2,2 h 11.987 c 1.104,0 2,-0.896 2,-2 V 17.398 H 0.47 c 2.09,3.274 4.624,5.721 7.602,7.341 2.978,1.619 6.366,2.429 10.161,2.429 7.106,0 12.6,-2.438 16.485,-7.314 3.883,-4.876 5.825,-11.512 5.825,-19.906 0,-9.126 -2.265,-16.458 -6.792,-21.995 -4.528,-5.539 -10.536,-8.307 -18.025,-8.307 -3.344,0 -6.279,0.662 -8.803,1.985 -2.527,1.323 -4.676,3.308 -6.453,5.956"
 style="fill:#000000;fill-opacity:1;fill-rule:nonzero;stroke:none"/>
 </g>
 <g transform="translate(199.8274,87.3037)">
 <path d="m 0,0 c 2.786,0 5.059,0.827 6.817,2.481 1.759,1.655 2.639,3.771 2.639,6.348 0,2.613 -0.88,4.737 -2.639,6.375 -1.758,1.637 -4.031,2.455 -6.817,2.455 -2.787,0 -5.061,-0.818 -6.818,-2.455 -1.76,-1.638 -2.639,-3.762 -2.639,-6.375 0,-2.508 0.879,-4.606 2.639,-6.295 C -5.061,0.844 -2.787,0 0,0"
 style="fill:#e64196;fill-opacity:1;fill-rule:nonzero;stroke:none"/>
 </g>
 <g transform="translate(193.7288,25.1309)">
 <path d="m 0,0 h 11.935 c 1.104,0 2,0.895 2,2 v 50.807 c 0,1.104 -0.896,2 -2,2 H 0 c -1.105,0 -2,-0.896 -2,-2 V 2 C -2,0.895 -1.105,0 0,0"
 style="fill:#000000;fill-opacity:1;fill-rule:nonzero;stroke:none"/>
 </g>
 <g transform="translate(271.4954,25.1309)">
 <path d="m 0,0 h -11.935 c -1.104,0 -2,0.895 -2,2 v 28.564 c 0,4.423 -0.793,7.741 -2.377,9.953 -1.585,2.212 -3.962,3.317 -7.132,3.317 -3.065,0 -5.608,-1.184 -7.627,-3.553 -2.021,-2.368 -3.032,-5.381 -3.032,-9.038 V 2 c 0,-1.105 -0.895,-2 -2,-2 h -11.986 c -1.104,0 -2,0.895 -2,2 v 50.807 c 0,1.104 0.896,2 2,2 h 11.986 c 1.105,0 2,-0.896 2,-2 v -6.726 h 0.209 c 2.021,3.378 4.502,5.903 7.446,7.575 2.943,1.672 6.347,2.508 10.215,2.508 6.06,0 10.613,-1.89 13.662,-5.668 C 0.476,46.716 2,41.083 2,33.594 V 2 C 2,0.895 1.105,0 0,0"
 style="fill:#000000;fill-opacity:1;fill-rule:nonzero;stroke:none" />
 </g>
 <g transform="translate(322.9749,51.2539)">
 <path d="m 0,0 v 4.807 c 0,3.552 -1.079,6.59 -3.238,9.117 -2.16,2.524 -4.947,3.787 -8.36,3.787 -3.936,0 -7.027,-1.515 -9.274,-4.545 -2.246,-3.03 -3.37,-7.314 -3.37,-12.853 0,-4.772 1.071,-8.542 3.214,-11.311 2.141,-2.769 5.058,-4.153 8.751,-4.153 3.691,0 6.661,1.392 8.908,4.179 C -1.123,-8.186 0,-4.528 0,0 m 15.779,-19.592 c 0,-9.161 -2.804,-16.727 -8.412,-22.701 -5.608,-5.974 -13.775,-8.961 -24.504,-8.961 -3.97,0 -7.653,0.375 -11.05,1.124 -2.765,0.61 -5.536,1.491 -8.313,2.643 -1.046,0.435 -1.545,1.634 -1.087,2.67 l 3.196,7.226 c 0.435,0.983 1.573,1.448 2.568,1.045 2.156,-0.872 4.248,-1.534 6.275,-1.985 2.577,-0.575 5.486,-0.863 8.726,-0.863 5.363,0 9.473,1.577 12.33,4.729 2.855,3.152 4.283,7.341 4.283,12.565 v 4.023 h -0.209 c -1.915,-3.135 -4.328,-5.485 -7.235,-7.054 -2.91,-1.566 -6.243,-2.35 -10.005,-2.35 -7.002,0 -12.558,2.472 -16.667,7.419 -4.111,4.945 -6.165,11.528 -6.165,19.749 0,9.264 2.29,16.64 6.87,22.125 4.58,5.487 10.598,8.229 18.052,8.229 3.378,0 6.339,-0.652 8.881,-1.959 2.542,-1.306 4.632,-3.283 6.269,-5.93 h 0.209 v 4.532 c 0,1.104 0.895,2 2,2 h 11.988 c 1.105,0 2,-0.896 2,-2 z"
 style="fill:#000000;fill-opacity:1;fill-rule:nonzero;stroke:none" />
 </g>
 <g transform="translate(16.3008,66.6397)">
 <path d="m 0,0 v 31.412 c 0,1.105 -0.895,2 -2,2 h -12.301 c -1.104,0 -2,-0.895 -2,-2 v -70.921 c 0,-1.104 0.896,-2 2,-2 H -2 c 1.105,0 2,0.896 2,2 v 31.967 2.135 4.076 z" style="fill:#e64196;fill-opacity:1;fill-rule:nonzero;stroke:none" />
 </g>
 </g>
 </g>
 </g>
</svg>
