<?xml version="1.0" encoding="UTF-8" standalone="no"?>
<!-- Created with Inkscape (http://www.inkscape.org/) -->

<svg
   version="1.1"
   id="svg2"
   width="645.24628"
   height="743.28381"
   viewBox="0 0 645.24628 743.28384"
   xmlns="http://www.w3.org/2000/svg"
   xmlns:svg="http://www.w3.org/2000/svg">
  <defs
     id="defs6">
    <clipPath
       clipPathUnits="userSpaceOnUse"
       id="clipPath18">
      <path
         d="M -9,-9 H 605 V 851 H -9 Z"
         clip-rule="evenodd"
         id="path16" />
    </clipPath>
  </defs>
  <g
     id="g10"
     transform="matrix(1.3333333,0,0,-1.3333333,-38.646797,1017.6805)">
    <g
       id="g12">
      <g
         id="g14"
         clip-path="url(#clipPath18)">
        <path
           d="m 75.9203,590.0077 v 69.7518 L 28.9851,706.602 h 46.9352 24.5154 355.7212 l 56.7629,56.6584 v -56.6584 -26.6822 -1.9766 c -57.1048,0 -102.1042,-17.0912 -135.021,-51.3212 -16.0305,23.3441 -32.792,40.4563 -50.2707,51.3212 -22.1239,13.7954 -48.665,20.6822 -79.5221,20.6822 -85.6482,0 -143.0348,-36.2067 -172.1857,-108.6177 z M 512.9198,420.4154 c -37.9993,0 -68.8195,30.7479 -68.8195,68.6837 0,37.9069 30.8202,68.6812 68.8195,68.6812 z M 253.1384,559.1446 c 38.7607,0 70.1745,-31.3662 70.1745,-70.0455 0,-38.7082 -31.4138,-70.0716 -70.1745,-70.0716 -38.7802,0 -70.196,31.3634 -70.196,70.0716 0,38.6793 31.4158,70.0455 70.196,70.0455 z m 62.5357,-288.8935 0.193,0.205 H 75.9203 v 121.3883 c 13.3906,-35.5677 35.1153,-62.8177 65.1209,-81.7951 29.9922,-18.9774 65.6974,-28.4564 107.0648,-28.4564 25.6411,0 51.0452,6.7745 76.256,20.296 25.196,13.5445 43.05,30.636 53.5368,51.3425 20.3817,-18.5916 40.7633,-31.5924 61.1668,-39.0019 19.2323,-6.8847 43.85,-10.3396 73.8542,-10.3396 v -33.4338 h -68.2515 l 0.1817,-0.205 -64.5831,-64.4536 z"
           style="fill:#ffcf00;fill-opacity:1;fill-rule:nonzero;stroke:none"
           id="path20" />
      </g>
    </g>
  </g>
</svg>
