<?xml version="1.0" encoding="UTF-8" standalone="no"?>
<!-- Created with Inkscape (http://www.inkscape.org/) -->

<svg
   version="1.1"
   id="svg2"
   width="2565.3733"
   height="244.752"
   viewBox="0 0 2565.3733 244.752"
   xmlns="http://www.w3.org/2000/svg"
   xmlns:svg="http://www.w3.org/2000/svg">
  <defs
     id="defs6">
    <clipPath
       clipPathUnits="userSpaceOnUse"
       id="clipPath18">
      <path
         d="M 0,183.564 H 1924.034 V 0 H 0 Z"
         id="path16" />
    </clipPath>
  </defs>
  <g
     id="g10"
     transform="matrix(1.3333333,0,0,-1.3333333,0,244.752)">
    <g
       id="g12">
      <g
         id="g14"
         clip-path="url(#clipPath18)">
        <g
           id="g20"
           transform="translate(90.0816,162.2114)">
          <path
             d="m 0,0 -6.06,0.556 3.595,-4.822 -3.703,-4.938 6.168,0.672 2.47,-5.611 2.468,5.611 6.173,-0.672 -3.703,4.938 3.59,4.939 L 4.938,0 2.47,5.611 Z m -16.94,-22.668 -6.06,0.563 3.59,-4.829 -3.703,-4.938 6.173,0.671 2.464,-5.61 2.47,5.61 6.174,-0.671 -3.705,4.938 3.591,4.94 -6.06,-0.674 -2.47,5.611 z M -33.998,0 l -6.061,0.556 3.592,-4.822 -3.701,-4.938 6.17,0.672 2.469,-5.611 2.468,5.611 6.173,-0.672 -3.702,4.938 L -23,0.673 -29.061,0 -31.529,5.611 Z M 1.685,-117.146 c -7.405,0 -7.631,-4.377 -16.161,-4.377 -7.965,0 -9.422,4.377 -16.268,4.377 -7.182,0 -7.295,-4.159 -16.496,-4.268 8.529,-9.986 19.637,-17.955 32.764,-22.551 12.57,4.376 23.677,11.893 32.656,22.551 -8.979,0 -9.201,4.268 -16.495,4.268 m 16.159,2.015 c 2.242,0 4.262,0.453 6.059,1.235 1.345,2.132 2.243,3.812 3.365,6.062 -2.805,-1.46 -5.833,-2.586 -9.424,-2.586 -7.858,0 -8.303,4.268 -16.159,4.268 -7.517,0 -8.53,-4.268 -16.269,-4.268 -7.968,0 -8.08,4.268 -16.16,4.268 -7.631,0 -8.529,-4.268 -16.159,-4.268 -4.263,0 -6.954,1.572 -9.537,2.806 1.125,-2.241 2.356,-4.259 3.704,-6.392 1.906,-0.672 3.925,-1.015 5.945,-1.015 8.304,0 8.193,4.266 16.047,4.266 7.516,0 8.529,-4.376 16.16,-4.376 7.852,0 8.752,4.376 16.269,4.376 7.516,0 8.416,-4.376 16.159,-4.376 m -46.682,41.633 -9.986,13.353 L -62.5,-91.9 c 1.684,-8.198 5.724,-12.12 15.709,-12.12 6.846,0 7.967,4.26 16.047,4.26 8.416,0 8.978,-4.26 16.268,-4.26 7.073,0 7.744,4.26 16.161,4.26 8.416,0 9.2,-4.26 16.159,-4.26 9.873,0 14.475,4.711 15.71,12.229 L 9.764,-60.145 -0.223,-73.498 -14.476,-45 Z m 74.508,71.811 -4.825,-76.64 c -2.021,-31.976 -22.779,-60.362 -55.321,-71.139 -30.631,9.877 -53.186,37.366 -55.315,71.139 l -4.939,76.64 c -1.233,-0.563 -3.141,-1.344 -4.489,-2.016 l 4.713,-74.96 c 2.245,-35.233 26.371,-65.755 60.03,-75.631 32.992,9.876 57.789,39.726 60.036,75.631 l 4.711,74.96 c -1.46,0.672 -2.918,1.346 -4.601,2.016 m 5.052,-77.312 c -2.357,-37.812 -27.83,-70.021 -65.198,-80.789 -36.018,10.213 -62.837,41.743 -65.301,80.789 l -4.938,78.437 c 22.891,11.105 44.211,16.941 70.239,16.941 23.568,0 46.905,-5.157 70.131,-16.941 z"
             style="fill:#7cabce;fill-opacity:1;fill-rule:nonzero;stroke:none"
             id="path22" />
        </g>
        <g
           id="g24"
           transform="translate(90.0816,162.1577)">
          <path
             d="M 0,0 -6.06,0.563 -2.465,-4.263 -6.168,-9.201 0,-8.53 l 2.47,-5.61 2.468,5.61 6.173,-0.671 -3.703,4.938 3.59,4.939 L 4.938,0 2.47,5.61 Z m -16.94,-22.665 -6.06,0.559 3.59,-4.825 -3.703,-4.935 6.173,0.672 2.464,-5.61 2.47,5.61 6.174,-0.672 -3.705,4.935 3.591,4.938 -6.06,-0.672 -2.47,5.611 z M -33.998,0 l -6.061,0.563 3.592,-4.826 -3.701,-4.938 6.17,0.671 2.469,-5.61 2.468,5.61 6.173,-0.671 -3.702,4.938 L -23,0.676 -29.061,0 -31.529,5.61 Z M 1.685,-117.147 c -7.405,0 -7.631,-4.377 -16.161,-4.377 -7.965,0 -9.422,4.377 -16.268,4.377 -7.182,0 -7.295,-4.151 -16.496,-4.264 8.529,-9.986 19.637,-17.953 32.764,-22.555 12.57,4.376 23.677,11.897 32.656,22.555 -8.979,0 -9.201,4.264 -16.495,4.264 m 16.159,2.019 c 2.242,0 4.262,0.449 6.059,1.234 1.345,2.134 2.243,3.817 3.365,6.06 -2.805,-1.458 -5.833,-2.583 -9.424,-2.583 -7.858,0 -8.303,4.268 -16.159,4.268 -7.517,0 -8.53,-4.268 -16.269,-4.268 -7.968,0 -8.08,4.268 -16.16,4.268 -7.631,0 -8.529,-4.268 -16.159,-4.268 -4.263,0 -6.954,1.57 -9.537,2.807 1.125,-2.245 2.356,-4.264 3.704,-6.397 1.906,-0.672 3.925,-1.008 5.945,-1.008 8.304,0 8.193,4.263 16.047,4.263 7.516,0 8.529,-4.376 16.16,-4.376 7.852,0 8.752,4.376 16.269,4.376 7.516,0 8.416,-4.376 16.159,-4.376 m -46.682,41.629 -9.986,13.354 -23.676,-31.756 c 1.684,-8.189 5.724,-12.116 15.709,-12.116 6.846,0 7.967,4.263 16.047,4.263 8.416,0 8.978,-4.263 16.268,-4.263 7.073,0 7.744,4.263 16.161,4.263 8.416,0 9.2,-4.263 16.159,-4.263 9.873,0 14.475,4.711 15.71,12.229 l -23.79,31.643 -9.987,-13.354 -14.253,28.502 z M 45.67,-1.685 40.845,-78.324 c -2.021,-31.98 -22.779,-60.366 -55.321,-71.14 -30.631,9.874 -53.186,37.367 -55.315,71.14 l -4.939,76.639 c -1.233,-0.558 -3.141,-1.343 -4.489,-2.019 l 4.713,-74.956 c 2.245,-35.234 26.371,-65.755 60.03,-75.629 32.992,9.874 57.789,39.724 60.036,75.629 l 4.711,74.956 c -1.46,0.676 -2.918,1.348 -4.601,2.019 m 5.052,-77.312 c -2.357,-37.815 -27.83,-70.018 -65.198,-80.789 -36.018,10.209 -62.837,41.743 -65.301,80.789 l -4.938,78.437 c 22.891,11.109 44.211,16.942 70.239,16.942 23.568,0 46.905,-5.162 70.131,-16.942 z"
             style="fill:#619cbc;fill-opacity:1;fill-rule:nonzero;stroke:none"
             id="path26" />
        </g>
        <g
           id="g28"
           transform="translate(295.2729,140.0576)">
          <path
             d="m 0,0 h 11.76 c 2.186,0 4.106,0.134 5.76,0.401 1.652,0.268 3.04,0.803 4.16,1.605 1.12,0.803 1.972,1.94 2.56,3.413 0.586,1.472 0.88,3.386 0.88,5.741 0,2.301 -0.28,4.161 -0.84,5.58 -0.56,1.418 -1.387,2.529 -2.48,3.331 -1.094,0.803 -2.48,1.351 -4.16,1.646 C 15.96,22.013 14,22.16 11.76,22.16 H 0 Z m 0,-30 h -6.08 v 57.28 h 18.32 c 3.253,0 6.08,-0.267 8.48,-0.8 2.4,-0.534 4.386,-1.414 5.96,-2.64 1.572,-1.228 2.733,-2.854 3.48,-4.88 0.746,-2.027 1.12,-4.507 1.12,-7.44 0,-4.854 -0.987,-8.547 -2.96,-11.08 -1.974,-2.534 -5.04,-4.174 -9.2,-4.92 L 32.48,-30 H 25.52 L 12.72,-5.12 H 0 Z"
             style="fill:#2b2e31;fill-opacity:1;fill-rule:nonzero;stroke:none"
             id="path30" />
        </g>
        <g
           id="g32"
           transform="translate(339.1123,110.0576)">
          <path
             d="M 0,0 V 57.28 H 34.32 V 52.16 H 6.08 V 31.44 H 30.56 V 26.32 H 6.08 V 5.12 H 34.32 V 0 Z"
             style="fill:#2b2e31;fill-opacity:1;fill-rule:nonzero;stroke:none"
             id="path34" />
        </g>
        <g
           id="g36"
           transform="translate(391.6718,138.7778)">
          <path
             d="m 0,0 h 11.36 c 2.186,0 4.106,0.146 5.76,0.441 1.652,0.294 3.04,0.855 4.16,1.685 1.12,0.83 1.973,2.007 2.56,3.533 0.586,1.525 0.88,3.546 0.88,6.061 0,2.407 -0.28,4.361 -0.84,5.86 -0.56,1.499 -1.387,2.676 -2.48,3.532 -1.094,0.857 -2.48,1.431 -4.16,1.726 -1.68,0.294 -3.64,0.442 -5.88,0.442 L 0,23.28 Z m 0,-28.72 h -6.08 v 57.28 h 17.92 c 3.252,0 6.08,-0.28 8.48,-0.84 2.4,-0.56 4.386,-1.48 5.96,-2.76 1.573,-1.28 2.733,-2.96 3.48,-5.04 0.746,-2.08 1.12,-4.668 1.12,-7.76 0,-6.24 -1.534,-10.68 -4.6,-13.32 C 23.212,-3.8 18.4,-5.12 11.84,-5.12 H 0 Z"
             style="fill:#2b2e31;fill-opacity:1;fill-rule:nonzero;stroke:none"
             id="path38" />
        </g>
        <g
           id="g40"
           transform="translate(470.4712,129.9775)">
          <path
             d="m 0,0 c 0,-3.68 -0.454,-6.84 -1.36,-9.48 -0.907,-2.64 -2.24,-4.8 -4,-6.48 -1.76,-1.68 -3.893,-2.92 -6.4,-3.72 -2.507,-0.8 -5.36,-1.2 -8.56,-1.2 -6.187,0 -10.973,1.587 -14.36,4.76 -3.387,3.173 -5.08,8.253 -5.08,15.24 v 38.24 h 6.08 v -37.6 c 0,-5.494 1.133,-9.427 3.4,-11.8 2.266,-2.373 5.72,-3.56 10.36,-3.56 4.586,0 8.04,1.2 10.36,3.6 2.32,2.4 3.481,6.32 3.481,11.76 v 37.6 H 0 Z"
             style="fill:#2b2e31;fill-opacity:1;fill-rule:nonzero;stroke:none"
             id="path42" />
        </g>
        <g
           id="g44"
           transform="translate(516.231,126.0176)">
          <path
             d="m 0,0 c 0,3.694 -0.96,6.397 -2.88,8.11 -1.92,1.713 -4.854,2.57 -8.8,2.57 H -25.2 v -21.52 h 13.52 c 3.946,0 6.88,0.87 8.8,2.61 C -0.96,-6.49 0,-3.748 0,0 m -1.04,25.96 c 0,3.946 -1,6.64 -3,8.08 -2,1.44 -4.788,2.16 -8.36,2.16 H -25.2 V 15.8 h 12.8 c 3.52,0 6.292,0.733 8.32,2.2 2.026,1.466 3.04,4.12 3.04,7.96 m 7.2,-26.297 c 0,-5.395 -1.508,-9.348 -4.52,-11.858 -3.014,-2.51 -7.908,-3.765 -14.68,-3.765 h -18.24 v 57.28 h 18.24 c 6.452,0 11.092,-1.239 13.92,-3.715 2.826,-2.476 4.24,-6.19 4.24,-11.143 0,-6.549 -2.348,-10.81 -7.04,-12.779 V 13.362 C 0.852,12.294 2.892,10.705 4.2,8.595 5.506,6.485 6.16,3.507 6.16,-0.337"
             style="fill:#2b2e31;fill-opacity:1;fill-rule:nonzero;stroke:none"
             id="path46" />
        </g>
        <g
           id="g48"
           transform="translate(534.7104,110.0576)">
          <path
             d="M 0,0 V 57.28 H 6.08 V 5.12 H 32.8 V 0 Z"
             style="fill:#2b2e31;fill-opacity:1;fill-rule:nonzero;stroke:none"
             id="path50" />
        </g>
        <path
           d="m 577.43,167.337 h 6.08 v -57.28 h -6.08 z"
           style="fill:#2b2e31;fill-opacity:1;fill-rule:nonzero;stroke:none"
           id="path52" />
        <g
           id="g54"
           transform="translate(599.3491,167.3374)">
          <path
             d="m 0,0 h 6.08 v -25.28 h 5.36 L 30.08,0 h 7.04 L 16.4,-27.68 37.6,-57.28 h -7.36 l -19.2,26.8 H 6.08 v -26.8 H 0 Z"
             style="fill:#2b2e31;fill-opacity:1;fill-rule:nonzero;stroke:none"
             id="path56" />
        </g>
        <g
           id="g58"
           transform="translate(653.4282,129.1777)">
          <path
             d="M 0,0 H 21.12 L 10.72,32.72 H 10.4 Z M 22.72,-5.12 H -1.6 l -4.4,-14 h -6.24 l 18.8,57.28 h 8.16 L 33.6,-19.12 h -6.4 z"
             style="fill:#2b2e31;fill-opacity:1;fill-rule:nonzero;stroke:none"
             id="path60" />
        </g>
        <g
           id="g62"
           transform="translate(746.6265,125.1777)">
          <path
             d="m 0,0 c 0,-2.88 -0.334,-5.348 -1,-7.4 -0.668,-2.054 -1.76,-3.72 -3.28,-5 -1.52,-1.28 -3.48,-2.214 -5.88,-2.8 -2.4,-0.586 -5.308,-0.88 -8.72,-0.88 -3.04,0 -5.814,0.214 -8.32,0.64 -2.508,0.426 -4.96,1.092 -7.36,2 l 1.28,5.2 c 2.24,-0.8 4.653,-1.427 7.24,-1.88 2.586,-0.454 5.212,-0.68 7.88,-0.68 2.08,0 3.866,0.146 5.36,0.44 1.492,0.293 2.733,0.826 3.72,1.6 0.986,0.772 1.72,1.826 2.2,3.16 0.48,1.332 0.72,3.013 0.72,5.04 0,1.652 -0.174,3.08 -0.52,4.28 -0.347,1.2 -0.988,2.24 -1.92,3.12 -0.934,0.88 -2.188,1.666 -3.76,2.36 -1.574,0.693 -3.56,1.386 -5.96,2.08 -2.667,0.746 -5,1.56 -7,2.44 -2,0.88 -3.654,1.96 -4.96,3.24 -1.307,1.28 -2.28,2.786 -2.92,4.52 -0.64,1.732 -0.96,3.8 -0.96,6.2 0,5.12 1.44,8.972 4.32,11.56 2.88,2.586 7.36,3.88 13.44,3.88 2.507,0 5,-0.227 7.48,-0.68 2.48,-0.454 4.813,-1.107 7,-1.96 l -1.04,-5.12 c -2.187,0.746 -4.32,1.332 -6.4,1.76 -2.08,0.426 -4.348,0.64 -6.8,0.64 -4.268,0 -7.294,-0.748 -9.08,-2.24 -1.787,-1.494 -2.68,-3.974 -2.68,-7.44 0,-1.76 0.226,-3.227 0.68,-4.4 0.452,-1.174 1.133,-2.16 2.04,-2.96 0.906,-0.8 2.053,-1.494 3.44,-2.08 1.386,-0.588 3.013,-1.148 4.88,-1.68 3.36,-1.067 6.133,-2.094 8.32,-3.08 2.186,-0.987 3.906,-2.108 5.16,-3.36 C -2.147,9.266 -1.268,7.8 -0.76,6.12 -0.254,4.44 0,2.4 0,0"
             style="fill:#2b2e31;fill-opacity:1;fill-rule:nonzero;stroke:none"
             id="path64" />
        </g>
        <g
           id="g66"
           transform="translate(757.9062,110.0576)">
          <path
             d="M 0,0 V 57.28 H 6.08 V 5.12 H 32.8 V 0 Z"
             style="fill:#2b2e31;fill-opacity:1;fill-rule:nonzero;stroke:none"
             id="path68" />
        </g>
        <g
           id="g70"
           transform="translate(816.7861,114.4575)">
          <path
             d="m 0,0 c 2.986,0 5.48,0.44 7.48,1.32 2,0.88 3.6,2.293 4.8,4.24 1.2,1.946 2.053,4.466 2.56,7.56 0.507,3.092 0.76,6.853 0.76,11.28 0,4.48 -0.253,8.253 -0.76,11.32 -0.507,3.066 -1.36,5.546 -2.56,7.44 -1.2,1.893 -2.8,3.253 -4.8,4.08 -2,0.826 -4.494,1.24 -7.48,1.24 -2.987,0 -5.48,-0.414 -7.48,-1.24 -2,-0.827 -3.6,-2.187 -4.8,-4.08 -1.2,-1.894 -2.053,-4.374 -2.56,-7.44 -0.507,-3.067 -0.76,-6.84 -0.76,-11.32 0,-4.427 0.253,-8.188 0.76,-11.28 0.507,-3.094 1.36,-5.614 2.56,-7.56 1.2,-1.947 2.8,-3.36 4.8,-4.24 C -5.48,0.44 -2.987,0 0,0 m 0.08,-5.36 c -3.733,0 -6.987,0.494 -9.76,1.48 -2.774,0.986 -5.067,2.627 -6.88,4.92 -1.814,2.292 -3.173,5.32 -4.08,9.08 -0.907,3.76 -1.36,8.413 -1.36,13.96 0,5.546 0.453,10.226 1.36,14.04 0.907,3.813 2.266,6.88 4.08,9.2 1.813,2.32 4.106,3.986 6.88,5 2.773,1.012 6.027,1.52 9.76,1.52 3.68,0 6.893,-0.508 9.64,-1.52 2.746,-1.014 5.027,-2.667 6.84,-4.96 1.812,-2.294 3.173,-5.334 4.08,-9.12 C 21.546,34.453 22,29.812 22,24.32 22,18.72 21.56,14.026 20.68,10.24 19.8,6.453 18.466,3.4 16.68,1.08 14.893,-1.24 12.613,-2.894 9.84,-3.88 7.066,-4.866 3.813,-5.36 0.08,-5.36"
             style="fill:#2b2e31;fill-opacity:1;fill-rule:nonzero;stroke:none"
             id="path72" />
        </g>
        <g
           id="g74"
           transform="translate(843.9062,167.3374)">
          <path
             d="M 0,0 H 6.24 L 21.6,-51.36 h 0.32 L 37.12,0 h 5.92 l -17.2,-57.28 h -8.56 z"
             style="fill:#2b2e31;fill-opacity:1;fill-rule:nonzero;stroke:none"
             id="path76" />
        </g>
        <g
           id="g78"
           transform="translate(895.6666,110.0576)">
          <path
             d="M 0,0 V 57.28 H 34.32 V 52.16 H 6.08 V 31.44 H 30.56 V 26.32 H 6.08 V 5.12 H 34.32 V 0 Z"
             style="fill:#2b2e31;fill-opacity:1;fill-rule:nonzero;stroke:none"
             id="path80" />
        </g>
        <g
           id="g82"
           transform="translate(948.0659,160.8574)">
          <path
             d="m 0,0 h -0.32 v -50.8 h -5.6 V 6.48 h 8.96 l 25.68,-50.72 h 0.32 V 6.48 h 5.6 V -50.8 h -8.88 z"
             style="fill:#2b2e31;fill-opacity:1;fill-rule:nonzero;stroke:none"
             id="path84" />
        </g>
        <path
           d="m 998.544,167.337 h 6.08 v -57.28 h -6.08 z"
           style="fill:#2b2e31;fill-opacity:1;fill-rule:nonzero;stroke:none"
           id="path86" />
        <g
           id="g88"
           transform="translate(1028.2236,167.3374)">
          <path
             d="m 0,0 v -52.72 c 0,-2.72 -0.228,-5.12 -0.68,-7.2 -0.454,-2.08 -1.228,-3.893 -2.32,-5.44 -1.094,-1.546 -2.548,-2.88 -4.36,-4 -1.814,-1.12 -4.08,-2.08 -6.8,-2.88 l -1.6,5.12 c 1.812,0.534 3.332,1.188 4.56,1.96 1.226,0.774 2.226,1.72 3,2.84 0.772,1.12 1.32,2.428 1.64,3.92 0.32,1.493 0.48,3.227 0.48,5.2 V 0 Z"
             style="fill:#2b2e31;fill-opacity:1;fill-rule:nonzero;stroke:none"
             id="path90" />
        </g>
        <g
           id="g92"
           transform="translate(1048.3052,129.1777)">
          <path
             d="M 0,0 H 21.12 L 10.72,32.72 H 10.4 Z M 22.72,-5.12 H -1.6 l -4.4,-14 h -6.24 l 18.8,57.28 h 8.16 L 33.6,-19.12 h -6.4 z"
             style="fill:#2b2e31;fill-opacity:1;fill-rule:nonzero;stroke:none"
             id="path94" />
        </g>
        <g
           id="g96"
           transform="translate(303.0869,71.9536)">
          <path
             d="M 0,0 11.89,-26.65 H 12.3 L 24.108,0 H 37.311 V -58.713 H 26.978 v 43.46 h -0.41 L 16.564,-38.131 H 6.888 l -10.086,22.796 h -0.41 V -58.713 H -13.612 V 0 Z"
             style="fill:#2b2e31;fill-opacity:1;fill-rule:nonzero;stroke:none"
             id="path98" />
        </g>
        <path
           d="m 352.696,71.954 h 11.398 V 13.241 h -11.398 z"
           style="fill:#2b2e31;fill-opacity:1;fill-rule:nonzero;stroke:none"
           id="path100" />
        <g
           id="g102"
           transform="translate(387.1353,57.2749)">
          <path
             d="M 0,0 H -0.41 V -44.034 H -10.578 V 14.679 H 4.51 l 19.844,-45.347 h 0.41 V 14.679 H 34.933 V -44.034 H 19.762 Z"
             style="fill:#2b2e31;fill-opacity:1;fill-rule:nonzero;stroke:none"
             id="path104" />
        </g>
        <path
           d="m 434.53,71.954 h 11.398 V 13.241 H 434.53 Z"
           style="fill:#2b2e31;fill-opacity:1;fill-rule:nonzero;stroke:none"
           id="path106" />
        <g
           id="g108"
           transform="translate(472.7407,12.2563)">
          <path
             d="m 0,0 c -6.724,0 -12.218,0.902 -16.974,2.46 l 2.05,9.841 c 4.428,-1.477 10.496,-2.624 15.58,-2.624 5.494,0 9.348,1.475 9.348,7.462 0,4.591 -2.296,6.231 -9.922,8.446 -10.742,3.115 -16.646,6.642 -16.646,18.04 0,12.464 6.888,17.056 20.172,17.056 5.658,0 10.414,-0.984 15.58,-3.035 l -1.394,-9.429 c -4.018,1.639 -9.102,2.624 -13.94,2.624 -5.002,0 -8.61,-0.82 -8.61,-6.315 0,-5.494 3.526,-6.969 10.414,-9.019 C 17.712,31.98 21.895,28.7 21.895,18.04 21.895,5.002 15.744,0 0,0"
             style="fill:#2b2e31;fill-opacity:1;fill-rule:nonzero;stroke:none"
             id="path110" />
        </g>
        <g
           id="g112"
           transform="translate(525.4658,62.0308)">
          <path
             d="M 0,0 V -48.79 H -11.398 V 0 H -26.732 V 9.923 H 15.334 V 0 Z"
             style="fill:#2b2e31;fill-opacity:1;fill-rule:nonzero;stroke:none"
             id="path114" />
        </g>
        <g
           id="g116"
           transform="translate(568.1875,62.1948)">
          <path
             d="M 0,0 H -8.118 V -16.563 H 0 c 7.872,0 9.922,2.213 9.922,8.527 C 9.922,-1.64 7.38,0 0,0 M 12.136,-24.189 25.092,-48.954 H 11.972 L 0.574,-25.912 H -8.118 V -48.954 H -19.516 V 9.759 H 0.738 c 15.991,0 20.828,-6.069 20.828,-17.467 0,-8.118 -2.788,-13.857 -9.43,-16.481"
             style="fill:#2b2e31;fill-opacity:1;fill-rule:nonzero;stroke:none"
             id="path118" />
        </g>
        <g
           id="g120"
           transform="translate(615.4189,12.2563)">
          <path
             d="m 0,0 c -6.724,0 -12.218,0.902 -16.974,2.46 l 2.05,9.841 c 4.428,-1.477 10.496,-2.624 15.58,-2.624 5.494,0 9.348,1.475 9.348,7.462 0,4.591 -2.296,6.231 -9.922,8.446 -10.742,3.115 -16.646,6.642 -16.646,18.04 0,12.464 6.888,17.056 20.172,17.056 5.658,0 10.414,-0.984 15.58,-3.035 l -1.394,-9.429 c -4.018,1.639 -9.102,2.624 -13.94,2.624 -5.002,0 -8.61,-0.82 -8.61,-6.315 0,-5.494 3.526,-6.969 10.414,-9.019 C 17.712,31.98 21.895,28.7 21.895,18.04 21.895,5.002 15.744,0 0,0"
             style="fill:#2b2e31;fill-opacity:1;fill-rule:nonzero;stroke:none"
             id="path122" />
        </g>
        <g
           id="g124"
           transform="translate(668.144,62.0308)">
          <path
             d="M 0,0 V -48.79 H -11.398 V 0 H -26.732 V 9.923 H 15.334 V 0 Z"
             style="fill:#2b2e31;fill-opacity:1;fill-rule:nonzero;stroke:none"
             id="path126" />
        </g>
        <g
           id="g128"
           transform="translate(718.7373,13.2407)">
          <path
             d="m 0,0 h -17.138 l -15.908,58.713 h 12.054 L -8.528,9.922 h 0.41 L 4.428,58.713 H 15.99 Z"
             style="fill:#2b2e31;fill-opacity:1;fill-rule:nonzero;stroke:none"
             id="path130" />
        </g>
        <g
           id="g132"
           transform="translate(775.2358,42.7612)">
          <path
             d="m 0,0 c 0,15.662 -2.46,20.254 -12.054,20.254 -9.594,0 -12.054,-4.51 -12.054,-20.254 0,-15.58 2.46,-20.582 12.054,-20.582 C -2.46,-20.582 0,-15.58 0,0 m -35.999,-0.328 c 0,23.616 7.873,30.504 24.027,30.504 15.99,0 23.862,-6.806 23.862,-30.258 0,-23.78 -7.626,-30.423 -23.862,-30.423 -16.154,0 -24.027,6.643 -24.027,30.177"
             style="fill:#2b2e31;fill-opacity:1;fill-rule:nonzero;stroke:none"
             id="path134" />
        </g>
        <g
           id="g136"
           transform="translate(812.3794,13.2407)">
          <path
             d="m 0,0 v 10.004 l 26.24,38.95 H 1.23 v 9.759 H 39.033 V 48.872 L 12.464,9.758 H 39.606 V 0 Z"
             style="fill:#2b2e31;fill-opacity:1;fill-rule:nonzero;stroke:none"
             id="path138" />
        </g>
        <g
           id="g140"
           transform="translate(873.6328,35.2173)">
          <path
             d="M 0,0 H 14.76 L 7.544,26.404 H 7.134 Z M 17.384,-9.595 H -2.624 l -3.28,-12.382 h -11.972 l 17.794,58.713 h 15.334 l 17.876,-58.713 h -12.3 z"
             style="fill:#2b2e31;fill-opacity:1;fill-rule:nonzero;stroke:none"
             id="path142" />
        </g>
        <g
           id="g144"
           transform="translate(951.1206,62.0308)">
          <path
             d="m 0,0 h -8.2 v -38.868 h 8.282 c 9.349,0 12.874,3.116 12.874,19.845 C 12.956,-3.607 9.267,0 0,0 M -0.574,-48.79 H -19.598 V 9.923 h 18.86 c 20.173,0 25.421,-7.79 25.421,-29.11 0,-21.403 -6.643,-29.603 -25.257,-29.603"
             style="fill:#2b2e31;fill-opacity:1;fill-rule:nonzero;stroke:none"
             id="path146" />
        </g>
        <path
           d="M 985.233,71.954 H 996.63 V 13.241 h -11.397 z"
           style="fill:#2b2e31;fill-opacity:1;fill-rule:nonzero;stroke:none"
           id="path148" />
        <g
           id="g150"
           transform="translate(1031.2329,12.2563)">
          <path
             d="m 0,0 c -16.892,0 -24.6,8.036 -24.6,29.767 0,21.074 7.216,30.914 26.486,30.914 6.068,0 10.906,-1.066 15.417,-2.788 l -1.641,-9.43 c -3.771,1.475 -7.626,2.296 -12.546,2.296 -12.218,0 -15.826,-4.428 -15.826,-20.254 0,-16.975 4.1,-20.5 14.433,-20.5 2.131,0 4.591,0.164 6.805,0.819 v 20.91 H 19.271 V 4.265 C 14.351,2.215 8.692,0 0,0"
             style="fill:#2b2e31;fill-opacity:1;fill-rule:nonzero;stroke:none"
             id="path152" />
        </g>
        <path
           d="m 1061.983,71.954 h 11.397 V 13.241 h -11.397 z"
           style="fill:#2b2e31;fill-opacity:1;fill-rule:nonzero;stroke:none"
           id="path154" />
        <g
           id="g156"
           transform="translate(1107.9829,62.0308)">
          <path
             d="M 0,0 V -48.79 H -11.397 V 0 H -26.732 V 9.923 H 15.334 V 0 Z"
             style="fill:#2b2e31;fill-opacity:1;fill-rule:nonzero;stroke:none"
             id="path158" />
        </g>
        <g
           id="g160"
           transform="translate(1143.4888,35.2173)">
          <path
             d="M 0,0 H 14.76 L 7.544,26.404 H 7.134 Z M 17.384,-9.595 H -2.624 l -3.28,-12.382 h -11.972 l 17.794,58.713 h 15.334 l 17.876,-58.713 h -12.3 z"
             style="fill:#2b2e31;fill-opacity:1;fill-rule:nonzero;stroke:none"
             id="path162" />
        </g>
        <g
           id="g164"
           transform="translate(1183.5034,13.2407)">
          <path
             d="M 0,0 V 58.713 H 11.397 V 9.922 H 35.834 V 0 Z"
             style="fill:#2b2e31;fill-opacity:1;fill-rule:nonzero;stroke:none"
             id="path166" />
        </g>
        <g
           id="g168"
           transform="translate(1237.7866,57.2749)">
          <path
             d="M 0,0 H -0.41 V -44.034 H -10.578 V 14.679 H 4.51 l 19.844,-45.347 h 0.41 v 45.347 h 10.168 v -58.713 h -15.17 z"
             style="fill:#2b2e31;fill-opacity:1;fill-rule:nonzero;stroke:none"
             id="path170" />
        </g>
        <g
           id="g172"
           transform="translate(1318.8843,42.7612)">
          <path
             d="m 0,0 c 0,15.662 -2.46,20.254 -12.055,20.254 -9.593,0 -12.053,-4.51 -12.053,-20.254 0,-15.58 2.46,-20.582 12.053,-20.582 C -2.46,-20.582 0,-15.58 0,0 m -35.999,-0.328 c 0,23.616 7.873,30.504 24.026,30.504 15.991,0 23.863,-6.806 23.863,-30.258 0,-23.78 -7.626,-30.423 -23.863,-30.423 -16.153,0 -24.026,6.643 -24.026,30.177"
             style="fill:#2b2e31;fill-opacity:1;fill-rule:nonzero;stroke:none"
             id="path174" />
        </g>
        <g
           id="g176"
           transform="translate(1378.4956,62.0308)">
          <path
             d="M 0,0 H -8.282 V -16.974 H 0 c 7.79,0 9.922,2.296 9.922,8.529 C 9.922,-1.804 7.544,0 0,0 m 0.738,-26.813 h -9.02 V -48.79 H -19.68 V 9.923 H 0.738 c 15.826,0 20.828,-6.151 20.828,-17.795 0,-12.382 -5.494,-18.941 -20.828,-18.941"
             style="fill:#2b2e31;fill-opacity:1;fill-rule:nonzero;stroke:none"
             id="path178" />
        </g>
        <g
           id="g180"
           transform="translate(1427.0396,62.1948)">
          <path
             d="M 0,0 H -8.118 V -16.563 H 0 c 7.872,0 9.922,2.213 9.922,8.527 C 9.922,-1.64 7.38,0 0,0 M 12.137,-24.189 25.093,-48.954 H 11.973 L 0.574,-25.912 H -8.118 V -48.954 H -19.516 V 9.759 H 0.738 c 15.991,0 20.828,-6.069 20.828,-17.467 0,-8.118 -2.788,-13.857 -9.429,-16.481"
             style="fill:#2b2e31;fill-opacity:1;fill-rule:nonzero;stroke:none"
             id="path182" />
        </g>
        <g
           id="g184"
           transform="translate(1459.9214,13.2407)">
          <path
             d="M 0,0 V 58.713 H 37.556 V 48.79 H 11.397 V 34.44 H 34.194 V 24.683 H 11.397 V 9.922 H 37.556 V 0 Z"
             style="fill:#2b2e31;fill-opacity:1;fill-rule:nonzero;stroke:none"
             id="path186" />
        </g>
        <g
           id="g188"
           transform="translate(1541.3462,42.7612)">
          <path
             d="m 0,0 c 0,15.662 -2.46,20.254 -12.055,20.254 -9.593,0 -12.053,-4.51 -12.053,-20.254 0,-15.58 2.46,-20.582 12.053,-20.582 C -2.46,-20.582 0,-15.58 0,0 m -35.998,-0.328 c 0,23.616 7.871,30.504 24.025,30.504 15.991,0 23.863,-6.806 23.863,-30.258 0,-23.78 -7.626,-30.423 -23.863,-30.423 -16.154,0 -24.025,6.643 -24.025,30.177"
             style="fill:#2b2e31;fill-opacity:1;fill-rule:nonzero;stroke:none"
             id="path190" />
        </g>
        <g
           id="g192"
           transform="translate(1583.4106,38.1694)">
          <path
             d="M 0,0 H -8.61 V -15.007 H 1.886 c 6.232,0 8.282,2.542 8.282,7.38 C 10.168,-2.625 8.036,0 0,0 M 0.984,23.861 H -8.61 V 9.676 h 8.2 c 7.462,0 9.431,2.46 9.431,7.38 0,4.92 -1.969,6.805 -8.037,6.805 m 0.082,-48.79 H -20.008 V 33.784 H 0.82 c 14.596,0 20.008,-4.593 20.008,-15.253 0,-8.199 -3.362,-11.479 -7.544,-13.12 V 5.002 c 4.838,-1.969 8.693,-4.921 8.693,-13.694 0,-11.727 -6.643,-16.237 -20.911,-16.237"
             style="fill:#2b2e31;fill-opacity:1;fill-rule:nonzero;stroke:none"
             id="path194" />
        </g>
        <g
           id="g196"
           transform="translate(1634.7417,62.1948)">
          <path
             d="M 0,0 H -8.118 V -16.563 H 0 c 7.872,0 9.922,2.213 9.922,8.527 C 9.922,-1.64 7.38,0 0,0 M 12.137,-24.189 25.093,-48.954 H 11.973 L 0.574,-25.912 H -8.118 V -48.954 H -19.516 V 9.759 H 0.738 c 15.991,0 20.828,-6.069 20.828,-17.467 0,-8.118 -2.788,-13.857 -9.429,-16.481"
             style="fill:#2b2e31;fill-opacity:1;fill-rule:nonzero;stroke:none"
             id="path198" />
        </g>
        <g
           id="g200"
           transform="translate(1679.9233,35.2173)">
          <path
             d="M 0,0 H 14.76 L 7.544,26.404 H 7.134 Z M 17.384,-9.595 H -2.624 l -3.28,-12.382 h -11.972 l 17.794,58.713 h 15.334 l 17.876,-58.713 h -12.3 z"
             style="fill:#2b2e31;fill-opacity:1;fill-rule:nonzero;stroke:none"
             id="path202" />
        </g>
        <g
           id="g204"
           transform="translate(1717.1499,13.2407)">
          <path
             d="m 0,0 v 10.004 l 26.24,38.95 H 1.229 v 9.759 H 39.032 V 48.872 L 12.464,9.758 H 39.606 V 0 Z"
             style="fill:#2b2e31;fill-opacity:1;fill-rule:nonzero;stroke:none"
             id="path206" />
        </g>
        <g
           id="g208"
           transform="translate(1786.1118,38.1694)">
          <path
             d="M 0,0 H -8.61 V -15.007 H 1.886 c 6.232,0 8.282,2.542 8.282,7.38 C 10.168,-2.625 8.036,0 0,0 M 0.984,23.861 H -8.61 V 9.676 h 8.2 c 7.462,0 9.431,2.46 9.431,7.38 0,4.92 -1.969,6.805 -8.037,6.805 m 0.082,-48.79 H -20.008 V 33.784 H 0.82 c 14.596,0 20.008,-4.593 20.008,-15.253 0,-8.199 -3.362,-11.479 -7.544,-13.12 V 5.002 c 4.838,-1.969 8.693,-4.921 8.693,-13.694 0,-11.727 -6.643,-16.237 -20.911,-16.237"
             style="fill:#2b2e31;fill-opacity:1;fill-rule:nonzero;stroke:none"
             id="path210" />
        </g>
        <g
           id="g212"
           transform="translate(1851.6284,42.7612)">
          <path
             d="m 0,0 c 0,15.662 -2.46,20.254 -12.055,20.254 -9.593,0 -12.053,-4.51 -12.053,-20.254 0,-15.58 2.46,-20.582 12.053,-20.582 C -2.46,-20.582 0,-15.58 0,0 m -35.999,-0.328 c 0,23.616 7.873,30.504 24.026,30.504 15.991,0 23.863,-6.806 23.863,-30.258 0,-23.78 -7.626,-30.423 -23.863,-30.423 -16.153,0 -24.026,6.643 -24.026,30.177"
             style="fill:#2b2e31;fill-opacity:1;fill-rule:nonzero;stroke:none"
             id="path214" />
        </g>
      </g>
    </g>
  </g>
</svg>
