<svg xmlns="http://www.w3.org/2000/svg" width="2565.373" height="244.752"><defs><clipPath id="a" clipPathUnits="userSpaceOnUse"><path d="M0 183.564h1924.034V0H0Z"/></clipPath></defs><g clip-path="url(#a)" transform="matrix(1.33333 0 0 -1.33333 0 244.752)"><path d="m0 0-6.06.556 3.595-4.822-3.703-4.938L0-8.532l2.47-5.611 2.468 5.611 6.173-.672-3.703 4.938 3.59 4.939L4.938 0 2.47 5.611Zm-16.94-22.668-6.06.563 3.59-4.829-3.703-4.938 6.173.671 2.464-5.61 2.47 5.61 6.174-.671-3.705 4.938 3.591 4.94-6.06-.674-2.47 5.611zM-33.998 0l-6.061.556 3.592-4.822-3.701-4.938 6.17.672 2.469-5.611 2.468 5.611 6.173-.672-3.702 4.938L-23 .673-29.061 0l-2.468 5.611ZM1.685-117.146c-7.405 0-7.631-4.377-16.161-4.377-7.965 0-9.422 4.377-16.268 4.377-7.182 0-7.295-4.159-16.496-4.268 8.529-9.986 19.637-17.955 32.764-22.551 12.57 4.376 23.677 11.893 32.656 22.551-8.979 0-9.201 4.268-16.495 4.268m16.159 2.015c2.242 0 4.262.453 6.059 1.235 1.345 2.132 2.243 3.812 3.365 6.062-2.805-1.46-5.833-2.586-9.424-2.586-7.858 0-8.303 4.268-16.159 4.268-7.517 0-8.53-4.268-16.269-4.268-7.968 0-8.08 4.268-16.16 4.268-7.631 0-8.529-4.268-16.159-4.268-4.263 0-6.954 1.572-9.537 2.806 1.125-2.241 2.356-4.259 3.704-6.392a17.916 17.916 0 0 1 5.945-1.015c8.304 0 8.193 4.266 16.047 4.266 7.516 0 8.529-4.376 16.16-4.376 7.852 0 8.752 4.376 16.269 4.376 7.516 0 8.416-4.376 16.159-4.376m-46.682 41.633-9.986 13.353L-62.5-91.9c1.684-8.198 5.724-12.12 15.709-12.12 6.846 0 7.967 4.26 16.047 4.26 8.416 0 8.978-4.26 16.268-4.26 7.073 0 7.744 4.26 16.161 4.26 8.416 0 9.2-4.26 16.159-4.26 9.873 0 14.475 4.711 15.71 12.229L9.764-60.145-.223-73.498-14.476-45ZM45.67-1.687l-4.825-76.64c-2.021-31.976-22.779-60.362-55.321-71.139-30.631 9.877-53.186 37.366-55.315 71.139l-4.939 76.64c-1.233-.563-3.141-1.344-4.489-2.016l4.713-74.96c2.245-35.233 26.371-65.755 60.03-75.631 32.992 9.876 57.789 39.726 60.036 75.631l4.711 74.96c-1.46.672-2.918 1.346-4.601 2.016m5.052-77.312c-2.357-37.812-27.83-70.021-65.198-80.789-36.018 10.213-62.837 41.743-65.301 80.789L-84.715-.562c22.891 11.105 44.211 16.941 70.239 16.941 23.568 0 46.905-5.157 70.131-16.941z" style="fill:#7cabce;fill-opacity:1;fill-rule:nonzero;stroke:none" transform="translate(90.082 162.211)"/><path d="m0 0-6.06.563 3.595-4.826-3.703-4.938L0-8.53l2.47-5.61 2.468 5.61 6.173-.671-3.703 4.938 3.59 4.939L4.938 0 2.47 5.61Zm-16.94-22.665-6.06.559 3.59-4.825-3.703-4.935 6.173.672 2.464-5.61 2.47 5.61 6.174-.672-3.705 4.935 3.591 4.938-6.06-.672-2.47 5.611zM-33.998 0l-6.061.563 3.592-4.826-3.701-4.938 6.17.671 2.469-5.61 2.468 5.61 6.173-.671-3.702 4.938L-23 .676-29.061 0l-2.468 5.61ZM1.685-117.147c-7.405 0-7.631-4.377-16.161-4.377-7.965 0-9.422 4.377-16.268 4.377-7.182 0-7.295-4.151-16.496-4.264 8.529-9.986 19.637-17.953 32.764-22.555 12.57 4.376 23.677 11.897 32.656 22.555-8.979 0-9.201 4.264-16.495 4.264m16.159 2.019c2.242 0 4.262.449 6.059 1.234 1.345 2.134 2.243 3.817 3.365 6.06-2.805-1.458-5.833-2.583-9.424-2.583-7.858 0-8.303 4.268-16.159 4.268-7.517 0-8.53-4.268-16.269-4.268-7.968 0-8.08 4.268-16.16 4.268-7.631 0-8.529-4.268-16.159-4.268-4.263 0-6.954 1.57-9.537 2.807 1.125-2.245 2.356-4.264 3.704-6.397a17.909 17.909 0 0 1 5.945-1.008c8.304 0 8.193 4.263 16.047 4.263 7.516 0 8.529-4.376 16.16-4.376 7.852 0 8.752 4.376 16.269 4.376 7.516 0 8.416-4.376 16.159-4.376m-46.682 41.629-9.986 13.354L-62.5-91.901c1.684-8.189 5.724-12.116 15.709-12.116 6.846 0 7.967 4.263 16.047 4.263 8.416 0 8.978-4.263 16.268-4.263 7.073 0 7.744 4.263 16.161 4.263 8.416 0 9.2-4.263 16.159-4.263 9.873 0 14.475 4.711 15.71 12.229L9.764-60.145-.223-73.499l-14.253 28.502zM45.67-1.685l-4.825-76.639c-2.021-31.98-22.779-60.366-55.321-71.14-30.631 9.874-53.186 37.367-55.315 71.14L-74.73-1.685c-1.233-.558-3.141-1.343-4.489-2.019l4.713-74.956c2.245-35.234 26.371-65.755 60.03-75.629 32.992 9.874 57.789 39.724 60.036 75.629l4.711 74.956c-1.46.676-2.918 1.348-4.601 2.019m5.052-77.312c-2.357-37.815-27.83-70.018-65.198-80.789-36.018 10.209-62.837 41.743-65.301 80.789L-84.715-.56c22.891 11.109 44.211 16.942 70.239 16.942 23.568 0 46.905-5.162 70.131-16.942z" style="fill:#619cbc;fill-opacity:1;fill-rule:nonzero;stroke:none" transform="translate(90.082 162.158)"/><path d="M0 0h11.76c2.186 0 4.106.134 5.76.401 1.652.268 3.04.803 4.16 1.605 1.12.803 1.972 1.94 2.56 3.413.586 1.472.88 3.386.88 5.741 0 2.301-.28 4.161-.84 5.58-.56 1.418-1.387 2.529-2.48 3.331-1.094.803-2.48 1.351-4.16 1.646-1.68.296-3.64.443-5.88.443H0Zm0-30h-6.08v57.28h18.32c3.253 0 6.08-.267 8.48-.8 2.4-.534 4.386-1.414 5.96-2.64 1.572-1.228 2.733-2.854 3.48-4.88.746-2.027 1.12-4.507 1.12-7.44 0-4.854-.987-8.547-2.96-11.08-1.974-2.534-5.04-4.174-9.2-4.92L32.48-30h-6.96L12.72-5.12H0Z" style="fill:#2b2e31;fill-opacity:1;fill-rule:nonzero;stroke:none" transform="translate(295.273 140.058)"/><path d="M0 0v57.28h34.32v-5.12H6.08V31.44h24.48v-5.12H6.08V5.12h28.24V0Z" style="fill:#2b2e31;fill-opacity:1;fill-rule:nonzero;stroke:none" transform="translate(339.112 110.058)"/><path d="M0 0h11.36c2.186 0 4.106.146 5.76.441 1.652.294 3.04.855 4.16 1.685 1.12.83 1.973 2.007 2.56 3.533.586 1.525.88 3.546.88 6.061 0 2.407-.28 4.361-.84 5.86-.56 1.499-1.387 2.676-2.48 3.532-1.094.857-2.48 1.431-4.16 1.726-1.68.294-3.64.442-5.88.442H0Zm0-28.72h-6.08v57.28h17.92c3.252 0 6.08-.28 8.48-.84 2.4-.56 4.386-1.48 5.96-2.76 1.573-1.28 2.733-2.96 3.48-5.04.746-2.08 1.12-4.668 1.12-7.76 0-6.24-1.534-10.68-4.6-13.32-3.068-2.64-7.88-3.96-14.44-3.96H0Z" style="fill:#2b2e31;fill-opacity:1;fill-rule:nonzero;stroke:none" transform="translate(391.672 138.778)"/><path d="M0 0c0-3.68-.454-6.84-1.36-9.48-.907-2.64-2.24-4.8-4-6.48-1.76-1.68-3.893-2.92-6.4-3.72-2.507-.8-5.36-1.2-8.56-1.2-6.187 0-10.973 1.587-14.36 4.76-3.387 3.173-5.08 8.253-5.08 15.24v38.24h6.08V-.24c0-5.494 1.133-9.427 3.4-11.8 2.266-2.373 5.72-3.56 10.36-3.56 4.586 0 8.04 1.2 10.36 3.6C-7.24-9.6-6.079-5.68-6.079-.24v37.6H0Z" style="fill:#2b2e31;fill-opacity:1;fill-rule:nonzero;stroke:none" transform="translate(470.471 129.977)"/><path d="M0 0c0 3.694-.96 6.397-2.88 8.11-1.92 1.713-4.854 2.57-8.8 2.57H-25.2v-21.52h13.52c3.946 0 6.88.87 8.8 2.61C-.96-6.49 0-3.748 0 0m-1.04 25.96c0 3.946-1 6.64-3 8.08-2 1.44-4.788 2.16-8.36 2.16h-12.8V15.8h12.8c3.52 0 6.292.733 8.32 2.2 2.026 1.466 3.04 4.12 3.04 7.96M6.16-.337c0-5.395-1.508-9.348-4.52-11.858-3.014-2.51-7.908-3.765-14.68-3.765h-18.24v57.28h18.24c6.452 0 11.092-1.239 13.92-3.715 2.826-2.476 4.24-6.19 4.24-11.143 0-6.549-2.348-10.81-7.04-12.779v-.321c2.772-1.068 4.812-2.657 6.12-4.767 1.306-2.11 1.96-5.088 1.96-8.932" style="fill:#2b2e31;fill-opacity:1;fill-rule:nonzero;stroke:none" transform="translate(516.231 126.018)"/><path d="M0 0v57.28h6.08V5.12H32.8V0Z" style="fill:#2b2e31;fill-opacity:1;fill-rule:nonzero;stroke:none" transform="translate(534.71 110.058)"/><path d="M577.43 167.337h6.08v-57.28h-6.08z" style="fill:#2b2e31;fill-opacity:1;fill-rule:nonzero;stroke:none"/><path d="M0 0h6.08v-25.28h5.36L30.08 0h7.04L16.4-27.68l21.2-29.6h-7.36l-19.2 26.8H6.08v-26.8H0Z" style="fill:#2b2e31;fill-opacity:1;fill-rule:nonzero;stroke:none" transform="translate(599.35 167.337)"/><path d="M0 0h21.12l-10.4 32.72h-.32Zm22.72-5.12H-1.6l-4.4-14h-6.24l18.8 57.28h8.16L33.6-19.12h-6.4z" style="fill:#2b2e31;fill-opacity:1;fill-rule:nonzero;stroke:none" transform="translate(653.428 129.178)"/><path d="M0 0c0-2.88-.334-5.348-1-7.4-.668-2.054-1.76-3.72-3.28-5-1.52-1.28-3.48-2.214-5.88-2.8-2.4-.586-5.308-.88-8.72-.88-3.04 0-5.814.214-8.32.64a39.387 39.387 0 0 0-7.36 2l1.28 5.2c2.24-.8 4.653-1.427 7.24-1.88a45.479 45.479 0 0 1 7.88-.68c2.08 0 3.866.146 5.36.44 1.492.293 2.733.826 3.72 1.6.986.772 1.72 1.826 2.2 3.16.48 1.332.72 3.013.72 5.04 0 1.652-.174 3.08-.52 4.28A6.842 6.842 0 0 1-8.6 6.84c-.934.88-2.188 1.666-3.76 2.36-1.574.693-3.56 1.386-5.96 2.08-2.667.746-5 1.56-7 2.44-2 .88-3.654 1.96-4.96 3.24a12.118 12.118 0 0 0-2.92 4.52c-.64 1.732-.96 3.8-.96 6.2 0 5.12 1.44 8.972 4.32 11.56 2.88 2.586 7.36 3.88 13.44 3.88 2.507 0 5-.227 7.48-.68a38.1 38.1 0 0 0 7-1.96l-1.04-5.12a52.809 52.809 0 0 1-6.4 1.76c-2.08.426-4.348.64-6.8.64-4.268 0-7.294-.748-9.08-2.24-1.787-1.494-2.68-3.974-2.68-7.44 0-1.76.226-3.227.68-4.4a7.45 7.45 0 0 1 2.04-2.96c.906-.8 2.053-1.494 3.44-2.08 1.386-.588 3.013-1.148 4.88-1.68 3.36-1.067 6.133-2.094 8.32-3.08 2.186-.987 3.906-2.108 5.16-3.36a10.39 10.39 0 0 0 2.64-4.4C-.254 4.44 0 2.4 0 0" style="fill:#2b2e31;fill-opacity:1;fill-rule:nonzero;stroke:none" transform="translate(746.626 125.178)"/><path d="M0 0v57.28h6.08V5.12H32.8V0Z" style="fill:#2b2e31;fill-opacity:1;fill-rule:nonzero;stroke:none" transform="translate(757.906 110.058)"/><path d="M0 0c2.986 0 5.48.44 7.48 1.32 2 .88 3.6 2.293 4.8 4.24 1.2 1.946 2.053 4.466 2.56 7.56.507 3.092.76 6.853.76 11.28 0 4.48-.253 8.253-.76 11.32-.507 3.066-1.36 5.546-2.56 7.44-1.2 1.893-2.8 3.253-4.8 4.08-2 .826-4.494 1.24-7.48 1.24-2.987 0-5.48-.414-7.48-1.24-2-.827-3.6-2.187-4.8-4.08-1.2-1.894-2.053-4.374-2.56-7.44-.507-3.067-.76-6.84-.76-11.32 0-4.427.253-8.188.76-11.28.507-3.094 1.36-5.614 2.56-7.56 1.2-1.947 2.8-3.36 4.8-4.24C-5.48.44-2.987 0 0 0m.08-5.36c-3.733 0-6.987.494-9.76 1.48-2.774.986-5.067 2.627-6.88 4.92-1.814 2.292-3.173 5.32-4.08 9.08S-22 18.533-22 24.08c0 5.546.453 10.226 1.36 14.04.907 3.813 2.266 6.88 4.08 9.2 1.813 2.32 4.106 3.986 6.88 5 2.773 1.012 6.027 1.52 9.76 1.52 3.68 0 6.893-.508 9.64-1.52a15.328 15.328 0 0 0 6.84-4.96c1.812-2.294 3.173-5.334 4.08-9.12.906-3.787 1.36-8.428 1.36-13.92 0-5.6-.44-10.294-1.32-14.08-.88-3.787-2.214-6.84-4-9.16-1.787-2.32-4.067-3.974-6.84-4.96C7.066-4.866 3.813-5.36.08-5.36" style="fill:#2b2e31;fill-opacity:1;fill-rule:nonzero;stroke:none" transform="translate(816.786 114.457)"/><path d="M0 0h6.24L21.6-51.36h.32L37.12 0h5.92l-17.2-57.28h-8.56z" style="fill:#2b2e31;fill-opacity:1;fill-rule:nonzero;stroke:none" transform="translate(843.906 167.337)"/><path d="M0 0v57.28h34.32v-5.12H6.08V31.44h24.48v-5.12H6.08V5.12h28.24V0Z" style="fill:#2b2e31;fill-opacity:1;fill-rule:nonzero;stroke:none" transform="translate(895.667 110.058)"/><path d="M0 0h-.32v-50.8h-5.6V6.48h8.96l25.68-50.72h.32V6.48h5.6V-50.8h-8.88z" style="fill:#2b2e31;fill-opacity:1;fill-rule:nonzero;stroke:none" transform="translate(948.066 160.857)"/><path d="M998.544 167.337h6.08v-57.28h-6.08z" style="fill:#2b2e31;fill-opacity:1;fill-rule:nonzero;stroke:none"/><path d="M0 0v-52.72c0-2.72-.228-5.12-.68-7.2C-1.134-62-1.908-63.813-3-65.36c-1.094-1.546-2.548-2.88-4.36-4-1.814-1.12-4.08-2.08-6.8-2.88l-1.6 5.12c1.812.534 3.332 1.188 4.56 1.96 1.226.774 2.226 1.72 3 2.84.772 1.12 1.32 2.428 1.64 3.92.32 1.493.48 3.227.48 5.2V0Z" style="fill:#2b2e31;fill-opacity:1;fill-rule:nonzero;stroke:none" transform="translate(1028.224 167.337)"/><path d="M0 0h21.12l-10.4 32.72h-.32Zm22.72-5.12H-1.6l-4.4-14h-6.24l18.8 57.28h8.16L33.6-19.12h-6.4z" style="fill:#2b2e31;fill-opacity:1;fill-rule:nonzero;stroke:none" transform="translate(1048.305 129.178)"/><path d="m0 0 11.89-26.65h.41L24.108 0h13.203v-58.713H26.978v43.46h-.41L16.564-38.131H6.888L-3.198-15.335h-.41v-43.378h-10.004V0Z" style="fill:#2b2e31;fill-opacity:1;fill-rule:nonzero;stroke:none" transform="translate(303.087 71.954)"/><path d="M352.696 71.954h11.398V13.241h-11.398z" style="fill:#2b2e31;fill-opacity:1;fill-rule:nonzero;stroke:none"/><path d="M0 0h-.41v-44.034h-10.168v58.713H4.51l19.844-45.347h.41v45.347h10.169v-58.713H19.762Z" style="fill:#2b2e31;fill-opacity:1;fill-rule:nonzero;stroke:none" transform="translate(387.135 57.275)"/><path d="M434.53 71.954h11.398V13.241H434.53Z" style="fill:#2b2e31;fill-opacity:1;fill-rule:nonzero;stroke:none"/><path d="M0 0c-6.724 0-12.218.902-16.974 2.46l2.05 9.841c4.428-1.477 10.496-2.624 15.58-2.624 5.494 0 9.348 1.475 9.348 7.462 0 4.591-2.296 6.231-9.922 8.446-10.742 3.115-16.646 6.642-16.646 18.04 0 12.464 6.888 17.056 20.172 17.056 5.658 0 10.414-.984 15.58-3.035l-1.394-9.429c-4.018 1.639-9.102 2.624-13.94 2.624-5.002 0-8.61-.82-8.61-6.315 0-5.494 3.526-6.969 10.414-9.019C17.712 31.98 21.895 28.7 21.895 18.04 21.895 5.002 15.744 0 0 0" style="fill:#2b2e31;fill-opacity:1;fill-rule:nonzero;stroke:none" transform="translate(472.74 12.256)"/><path d="M0 0v-48.79h-11.398V0h-15.334v9.923h42.066V0Z" style="fill:#2b2e31;fill-opacity:1;fill-rule:nonzero;stroke:none" transform="translate(525.466 62.03)"/><path d="M0 0h-8.118v-16.563H0c7.872 0 9.922 2.213 9.922 8.527C9.922-1.64 7.38 0 0 0m12.136-24.189 12.956-24.765h-13.12L.574-25.912h-8.692v-23.042h-11.398V9.759H.738c15.991 0 20.828-6.069 20.828-17.467 0-8.118-2.788-13.857-9.43-16.481" style="fill:#2b2e31;fill-opacity:1;fill-rule:nonzero;stroke:none" transform="translate(568.188 62.195)"/><path d="M0 0c-6.724 0-12.218.902-16.974 2.46l2.05 9.841c4.428-1.477 10.496-2.624 15.58-2.624 5.494 0 9.348 1.475 9.348 7.462 0 4.591-2.296 6.231-9.922 8.446-10.742 3.115-16.646 6.642-16.646 18.04 0 12.464 6.888 17.056 20.172 17.056 5.658 0 10.414-.984 15.58-3.035l-1.394-9.429c-4.018 1.639-9.102 2.624-13.94 2.624-5.002 0-8.61-.82-8.61-6.315 0-5.494 3.526-6.969 10.414-9.019C17.712 31.98 21.895 28.7 21.895 18.04 21.895 5.002 15.744 0 0 0" style="fill:#2b2e31;fill-opacity:1;fill-rule:nonzero;stroke:none" transform="translate(615.419 12.256)"/><path d="M0 0v-48.79h-11.398V0h-15.334v9.923h42.066V0Z" style="fill:#2b2e31;fill-opacity:1;fill-rule:nonzero;stroke:none" transform="translate(668.144 62.03)"/><path d="M0 0h-17.138l-15.908 58.713h12.054L-8.528 9.922h.41L4.428 58.713H15.99Z" style="fill:#2b2e31;fill-opacity:1;fill-rule:nonzero;stroke:none" transform="translate(718.737 13.24)"/><path d="M0 0c0 15.662-2.46 20.254-12.054 20.254-9.594 0-12.054-4.51-12.054-20.254 0-15.58 2.46-20.582 12.054-20.582C-2.46-20.582 0-15.58 0 0m-35.999-.328c0 23.616 7.873 30.504 24.027 30.504 15.99 0 23.862-6.806 23.862-30.258 0-23.78-7.626-30.423-23.862-30.423-16.154 0-24.027 6.643-24.027 30.177" style="fill:#2b2e31;fill-opacity:1;fill-rule:nonzero;stroke:none" transform="translate(775.236 42.761)"/><path d="M0 0v10.004l26.24 38.95H1.23v9.759h37.803v-9.841L12.464 9.758h27.142V0Z" style="fill:#2b2e31;fill-opacity:1;fill-rule:nonzero;stroke:none" transform="translate(812.38 13.24)"/><path d="M0 0h14.76L7.544 26.404h-.41Zm17.384-9.595H-2.624l-3.28-12.382h-11.972L-.082 36.736h15.334l17.876-58.713h-12.3z" style="fill:#2b2e31;fill-opacity:1;fill-rule:nonzero;stroke:none" transform="translate(873.633 35.217)"/><path d="M0 0h-8.2v-38.868H.082c9.349 0 12.874 3.116 12.874 19.845C12.956-3.607 9.267 0 0 0m-.574-48.79h-19.024V9.923h18.86c20.173 0 25.421-7.79 25.421-29.11 0-21.403-6.643-29.603-25.257-29.603" style="fill:#2b2e31;fill-opacity:1;fill-rule:nonzero;stroke:none" transform="translate(951.12 62.03)"/><path d="M985.233 71.954h11.397V13.241h-11.397z" style="fill:#2b2e31;fill-opacity:1;fill-rule:nonzero;stroke:none"/><path d="M0 0c-16.892 0-24.6 8.036-24.6 29.767 0 21.074 7.216 30.914 26.486 30.914 6.068 0 10.906-1.066 15.417-2.788l-1.641-9.43c-3.771 1.475-7.626 2.296-12.546 2.296-12.218 0-15.826-4.428-15.826-20.254 0-16.975 4.1-20.5 14.433-20.5 2.131 0 4.591.164 6.805.819v20.91h10.743V4.265C14.351 2.215 8.692 0 0 0" style="fill:#2b2e31;fill-opacity:1;fill-rule:nonzero;stroke:none" transform="translate(1031.233 12.256)"/><path d="M1061.983 71.954h11.397V13.241h-11.397z" style="fill:#2b2e31;fill-opacity:1;fill-rule:nonzero;stroke:none"/><path d="M0 0v-48.79h-11.397V0h-15.335v9.923h42.066V0Z" style="fill:#2b2e31;fill-opacity:1;fill-rule:nonzero;stroke:none" transform="translate(1107.983 62.03)"/><path d="M0 0h14.76L7.544 26.404h-.41Zm17.384-9.595H-2.624l-3.28-12.382h-11.972L-.082 36.736h15.334l17.876-58.713h-12.3z" style="fill:#2b2e31;fill-opacity:1;fill-rule:nonzero;stroke:none" transform="translate(1143.489 35.217)"/><path d="M0 0v58.713h11.397V9.922h24.437V0Z" style="fill:#2b2e31;fill-opacity:1;fill-rule:nonzero;stroke:none" transform="translate(1183.503 13.24)"/><path d="M0 0h-.41v-44.034h-10.168v58.713H4.51l19.844-45.347h.41v45.347h10.168v-58.713h-15.17z" style="fill:#2b2e31;fill-opacity:1;fill-rule:nonzero;stroke:none" transform="translate(1237.787 57.275)"/><path d="M0 0c0 15.662-2.46 20.254-12.055 20.254-9.593 0-12.053-4.51-12.053-20.254 0-15.58 2.46-20.582 12.053-20.582C-2.46-20.582 0-15.58 0 0m-35.999-.328c0 23.616 7.873 30.504 24.026 30.504 15.991 0 23.863-6.806 23.863-30.258 0-23.78-7.626-30.423-23.863-30.423-16.153 0-24.026 6.643-24.026 30.177" style="fill:#2b2e31;fill-opacity:1;fill-rule:nonzero;stroke:none" transform="translate(1318.884 42.761)"/><path d="M0 0h-8.282v-16.974H0c7.79 0 9.922 2.296 9.922 8.529C9.922-1.804 7.544 0 0 0m.738-26.813h-9.02V-48.79H-19.68V9.923H.738c15.826 0 20.828-6.151 20.828-17.795 0-12.382-5.494-18.941-20.828-18.941" style="fill:#2b2e31;fill-opacity:1;fill-rule:nonzero;stroke:none" transform="translate(1378.496 62.03)"/><path d="M0 0h-8.118v-16.563H0c7.872 0 9.922 2.213 9.922 8.527C9.922-1.64 7.38 0 0 0m12.137-24.189 12.956-24.765h-13.12L.574-25.912h-8.692v-23.042h-11.398V9.759H.738c15.991 0 20.828-6.069 20.828-17.467 0-8.118-2.788-13.857-9.429-16.481" style="fill:#2b2e31;fill-opacity:1;fill-rule:nonzero;stroke:none" transform="translate(1427.04 62.195)"/><path d="M0 0v58.713h37.556V48.79H11.397V34.44h22.797v-9.757H11.397V9.922h26.159V0Z" style="fill:#2b2e31;fill-opacity:1;fill-rule:nonzero;stroke:none" transform="translate(1459.921 13.24)"/><path d="M0 0c0 15.662-2.46 20.254-12.055 20.254-9.593 0-12.053-4.51-12.053-20.254 0-15.58 2.46-20.582 12.053-20.582C-2.46-20.582 0-15.58 0 0m-35.998-.328c0 23.616 7.871 30.504 24.025 30.504 15.991 0 23.863-6.806 23.863-30.258 0-23.78-7.626-30.423-23.863-30.423-16.154 0-24.025 6.643-24.025 30.177" style="fill:#2b2e31;fill-opacity:1;fill-rule:nonzero;stroke:none" transform="translate(1541.346 42.761)"/><path d="M0 0h-8.61v-15.007H1.886c6.232 0 8.282 2.542 8.282 7.38C10.168-2.625 8.036 0 0 0m.984 23.861H-8.61V9.676h8.2c7.462 0 9.431 2.46 9.431 7.38S7.052 23.861.984 23.861m.082-48.79h-21.074v58.713H.82c14.596 0 20.008-4.593 20.008-15.253 0-8.199-3.362-11.479-7.544-13.12v-.409c4.838-1.969 8.693-4.921 8.693-13.694 0-11.727-6.643-16.237-20.911-16.237" style="fill:#2b2e31;fill-opacity:1;fill-rule:nonzero;stroke:none" transform="translate(1583.41 38.17)"/><path d="M0 0h-8.118v-16.563H0c7.872 0 9.922 2.213 9.922 8.527C9.922-1.64 7.38 0 0 0m12.137-24.189 12.956-24.765h-13.12L.574-25.912h-8.692v-23.042h-11.398V9.759H.738c15.991 0 20.828-6.069 20.828-17.467 0-8.118-2.788-13.857-9.429-16.481" style="fill:#2b2e31;fill-opacity:1;fill-rule:nonzero;stroke:none" transform="translate(1634.742 62.195)"/><path d="M0 0h14.76L7.544 26.404h-.41Zm17.384-9.595H-2.624l-3.28-12.382h-11.972L-.082 36.736h15.334l17.876-58.713h-12.3z" style="fill:#2b2e31;fill-opacity:1;fill-rule:nonzero;stroke:none" transform="translate(1679.923 35.217)"/><path d="M0 0v10.004l26.24 38.95H1.229v9.759h37.803v-9.841L12.464 9.758h27.142V0Z" style="fill:#2b2e31;fill-opacity:1;fill-rule:nonzero;stroke:none" transform="translate(1717.15 13.24)"/><path d="M0 0h-8.61v-15.007H1.886c6.232 0 8.282 2.542 8.282 7.38C10.168-2.625 8.036 0 0 0m.984 23.861H-8.61V9.676h8.2c7.462 0 9.431 2.46 9.431 7.38S7.052 23.861.984 23.861m.082-48.79h-21.074v58.713H.82c14.596 0 20.008-4.593 20.008-15.253 0-8.199-3.362-11.479-7.544-13.12v-.409c4.838-1.969 8.693-4.921 8.693-13.694 0-11.727-6.643-16.237-20.911-16.237" style="fill:#2b2e31;fill-opacity:1;fill-rule:nonzero;stroke:none" transform="translate(1786.112 38.17)"/><path d="M0 0c0 15.662-2.46 20.254-12.055 20.254-9.593 0-12.053-4.51-12.053-20.254 0-15.58 2.46-20.582 12.053-20.582C-2.46-20.582 0-15.58 0 0m-35.999-.328c0 23.616 7.873 30.504 24.026 30.504 15.991 0 23.863-6.806 23.863-30.258 0-23.78-7.626-30.423-23.863-30.423-16.153 0-24.026 6.643-24.026 30.177" style="fill:#2b2e31;fill-opacity:1;fill-rule:nonzero;stroke:none" transform="translate(1851.628 42.761)"/></g></svg>