<svg xmlns="http://www.w3.org/2000/svg" width="635" height="108.533"><path d="M0 0h476.25v81.4H0Z" style="fill:#fff;fill-opacity:1;fill-rule:nonzero;stroke:none" transform="matrix(1.33333 0 0 -1.33333 0 108.533)"/><path d="M4.804 76.575h359.043V4.724H4.804Z" style="fill:#ed1c24;fill-opacity:1;fill-rule:nonzero;stroke:none" transform="matrix(1.33333 0 0 -1.33333 0 108.533)"/><g clip-path="url(#clipPath2927)" transform="matrix(1.33333 0 0 -1.33333 0 108.533)"><path d="M0 0c-.589.871-.809.952-1.441.952-.705 0-.982-.351-1.462-.992-.772-1.034-9.777-14.31-9.878-14.31H9.958C9.918-14.35 1.256-1.857 0 0m-1.341 11.899c3.229 0 5.234-1.191 8.252-5.052l22.458-32.145c1.193-1.684 1.075-4.365-.983-6.106-1.824-1.544-5.053-1.684-6.807.632l-5.374 7.439h-35.372l-5.364-7.58c-1.895-2.245-4.211-2.245-6.316-.841-2.187 1.457-2.737 4.28-1.404 6.246L-9.582 6.847c2.877 4.001 5.153 5.052 8.241 5.052" style="fill:#fff;fill-opacity:1;fill-rule:nonzero;stroke:none" transform="translate(256.679 51.674)"/><path d="M0 0h32.349c8.027 0 8.764-9.241 8.764-9.241L1.311-9.242c-1.97 0-3.799-1.49-3.799-4.078 0-2.953 2.243-4.36 3.657-4.36h28.129c5.573 0 13.502-4.641 13.502-12.658 0-10.408-9.213-14.106-12.42-14.106H-2.532c-9.779 0-9.239 9.324-9.239 9.324h40.788c1.631 0 4.035 1.618 4.035 4.037 0 2.307-2.11 4.079-3.656 4.079H1.829c-7.821 0-13.881 5.808-13.881 13.684C-12.052-4.459-4.445 0 0 0" style="fill:#fff;fill-opacity:1;fill-rule:nonzero;stroke:none" transform="translate(102.16 63.52)"/><path d="M0 0h33.407c5.06 0 12.913-4.141 12.913-14.037v-.631c0-5.271-3.299-9.896-7.93-12.142 0 0 .332-.505 7.509-10.247.928-1.258.983-4.28-1.052-6.105-1.94-1.739-5.177-1.961-6.808-.07-2.277 2.64-4.913 6.106-12.143 15.299H12.844c-3.721 0-8.774 2.948-8.774 9.475h28.214c1.529.064 3.986 1.532 3.986 4.416 0 2.667-2.363 4.491-4 4.491H1.107l.027-29.543c.003-3.227-2.468-5.402-5.135-5.402-2.525 0-5.053 2.246-5.053 5.264v30.108C-9.054-4.067-3.721 0 0 0" style="fill:#fff;fill-opacity:1;fill-rule:nonzero;stroke:none" transform="translate(309.527 63.58)"/><path d="M0 0h33.407c5.06 0 12.913-4.141 12.913-14.037v-.631c0-5.271-3.298-9.896-7.93-12.142 0 0-2.395-.774-4.641-1.055H12.765c-3.721 0-8.493 3.017-8.493 9.545h27.933c1.529.064 4.065 1.394 4.065 4.277 0 2.668-2.363 4.492-4.001 4.492l-31.155.003.019-29.547c.002-3.226-2.466-5.401-5.133-5.401-2.527 0-5.054 2.246-5.054 5.264v30.108C-9.054-4.067-3.72 0 0 0" style="fill:#fff;fill-opacity:1;fill-rule:nonzero;stroke:none" transform="translate(171.838 63.505)"/><path d="M0 0c0-13.771 6.932-26.101 19.137-32.132 11.476-5.671 26.765-5.671 38.276 0C68.764-26.54 76.517-13.771 76.517 0c0 21.062-16.843 38.275-38.259 38.275C16.74 38.275 0 21.196 0 0" style="fill:#00a650;fill-opacity:1;fill-rule:nonzero;stroke:none" transform="translate(381.883 39.632)"/><path d="M0 0c-3.848-13.062-15.323-32.2-23.693-41.583h19.845l.045-5.687c-.045-3.224-2.609-6.57-6.34-6.525-5.18.062-11.66 2.458-15.576 9.107-2.854 4.849-4.927 8.674-4.927 16.336 0 16.741 13.484 30.613 30.63 30.613 16.96 0 30.63-14.277 30.63-30.613 0-7.662-3.58-14.29-4.76-16.201-4.185-6.784-10.564-9.18-15.499-9.241-3.402-.042-6.541 2.457-6.541 6.541v5.67h20.151C15.29-32.2 3.814-13.062 0 0" style="fill:#fff;fill-opacity:1;fill-rule:nonzero;stroke:none" transform="translate(420.174 67.983)"/></g></svg>