<?xml version="1.0" encoding="UTF-8" standalone="no"?>
<!-- Created with Inkscape (http://www.inkscape.org/) -->

<svg
   version="1.1"
   id="svg2"
   width="917.05542"
   height="127.212"
   viewBox="0 0 917.05541 127.212"
   sodipodi:docname="LOGO UKOM slo.pdf"
   xmlns:inkscape="http://www.inkscape.org/namespaces/inkscape"
   xmlns:sodipodi="http://sodipodi.sourceforge.net/DTD/sodipodi-0.dtd"
   xmlns="http://www.w3.org/2000/svg"
   xmlns:svg="http://www.w3.org/2000/svg">
  <defs
     id="defs6">
    <clipPath
       clipPathUnits="userSpaceOnUse"
       id="clipPath18">
      <path
         d="M 0,286.667 H 839.876 V 0 H 0 Z"
         id="path16" />
    </clipPath>
  </defs>
  <sodipodi:namedview
     id="namedview4"
     pagecolor="#505050"
     bordercolor="#eeeeee"
     borderopacity="1"
     inkscape:showpageshadow="0"
     inkscape:pageopacity="0"
     inkscape:pagecheckerboard="0"
     inkscape:deskcolor="#505050"
     showgrid="false" />
  <g
     id="g10"
     inkscape:groupmode="layer"
     inkscape:label="Page 1"
     transform="matrix(1.3333333,0,0,-1.3333333,-101.29026,254.62426)">
    <g
       id="g12">
      <g
         id="g14"
         clip-path="url(#clipPath18)">
        <g
           id="g20"
           transform="translate(121.8457,182.0952)">
          <path
             d="M 0,0 -3.282,0.308 -1.331,-2.306 -3.344,-4.984 0,-4.62 1.337,-7.657 2.679,-4.62 6.023,-4.984 4.01,-2.306 5.953,0.358 2.679,0 1.337,3.037 Z m -9.17,-12.277 -3.289,0.302 1.943,-2.613 -2.004,-2.678 3.35,0.372 1.331,-3.046 1.342,3.046 3.34,-0.372 -2.008,2.678 1.943,2.674 -3.275,-0.363 -1.342,3.035 z M -18.407,0 l -3.285,0.308 1.943,-2.614 -2.006,-2.678 3.348,0.364 1.333,-3.037 1.341,3.037 3.339,-0.364 -2.008,2.678 1.943,2.664 L -15.733,0 -17.074,3.037 Z M 0.914,-63.446 c -4.009,0 -4.136,-2.364 -8.753,-2.364 -4.316,0 -5.104,2.364 -8.812,2.364 -3.884,0 -3.945,-2.251 -8.924,-2.314 4.606,-5.399 10.628,-9.72 17.736,-12.211 6.81,2.363 12.819,6.434 17.686,12.211 -4.867,0 -4.989,2.314 -8.933,2.314 m 8.747,1.099 c 1.22,0 2.314,0.235 3.284,0.657 0.727,1.157 1.209,2.067 1.83,3.286 -1.517,-0.797 -3.161,-1.403 -5.114,-1.403 -4.258,0 -4.494,2.309 -8.747,2.309 -4.071,0 -4.622,-2.309 -8.812,-2.309 -4.32,0 -4.374,2.309 -8.753,2.309 -4.131,0 -4.616,-2.309 -8.753,-2.309 -2.299,0 -3.767,0.859 -5.166,1.53 0.611,-1.22 1.282,-2.318 2.008,-3.475 1.03,-0.36 2.128,-0.537 3.226,-0.537 4.488,0 4.428,2.306 8.685,2.306 4.073,0 4.615,-2.364 8.753,-2.364 4.251,0 4.741,2.364 8.812,2.364 4.066,0 4.565,-2.364 8.747,-2.364 m -25.279,22.536 -5.401,7.234 -12.824,-17.203 c 0.908,-4.426 3.087,-6.556 8.507,-6.556 3.707,0 4.317,2.31 8.685,2.31 4.555,0 4.867,-2.31 8.812,-2.31 3.834,0 4.192,2.31 8.753,2.31 4.565,0 4.978,-2.31 8.747,-2.31 5.354,0 7.843,2.553 8.514,6.619 l -12.882,17.14 -5.413,-7.234 -7.719,15.437 z M 24.733,-0.912 22.12,-42.422 C 21.026,-59.735 9.787,-75.113 -7.839,-80.948 c -16.591,5.34 -28.803,20.24 -29.959,38.526 l -2.677,41.51 c -0.673,-0.297 -1.707,-0.723 -2.427,-1.096 l 2.552,-40.585 c 1.222,-19.097 14.286,-35.625 32.511,-40.981 17.873,5.356 31.292,21.524 32.512,40.981 l 2.552,40.585 c -0.788,0.373 -1.585,0.727 -2.492,1.096 m 2.741,-41.871 c -1.282,-20.482 -15.076,-37.931 -35.313,-43.753 -19.506,5.526 -34.03,22.604 -35.361,43.753 l -2.678,42.48 c 12.399,6.015 23.936,9.176 38.039,9.176 12.758,0 25.404,-2.799 37.985,-9.176"
             style="fill:#67a1bd;fill-opacity:1;fill-rule:nonzero;stroke:none"
             id="path22" />
        </g>
        <g
           id="g24"
           transform="translate(763.7593,109.4053)">
          <path
             d="m 0,0 v 4.35 h -11.473 v 6.475 h 10.004 v 4.278 h -10.004 v 6.293 H 0 v 4.351 H -16.463 V 0 Z m -29.881,-7.731 c 6.188,1.581 7.981,4.638 7.981,10.428 v 23.05 h -4.991 V 2.301 c 0,-3.381 -0.972,-4.71 -4.359,-5.754 z M -39.695,0 h 6.644 V 25.747 H -37.5 V 5.862 h -0.18 l -8.707,19.885 h -6.619 V 0 h 4.457 v 19.308 h 0.182 z m -27.731,21.217 h 0.182 l 3.162,-11.581 h -6.469 z M -61.418,0 h 5.395 l -7.844,25.747 h -6.729 L -78.393,0 h 5.25 l 1.442,5.431 h 8.771 z m -24.603,17.944 c 0,-2.77 -0.899,-3.743 -4.348,-3.743 h -3.567 v 7.269 h 3.567 c 3.23,0 4.348,-0.716 4.348,-3.526 m 5.107,0.143 c 0,4.999 -2.117,7.66 -9.131,7.66 h -8.879 V 0 h 4.988 v 10.104 h 3.819 L -85.119,0 h 5.754 l -5.682,10.861 c 2.908,1.148 4.133,3.665 4.133,7.226 m -23.486,7.66 h -4.998 V 0 h 4.998 z m -9.241,-0.648 c -1.691,0.611 -3.638,1.08 -6.257,1.08 -7.981,0 -11.141,-4.026 -11.141,-13.306 0,-9.567 3.305,-13.306 10.851,-13.306 2.594,0 4.819,0.47 6.801,1.329 l -0.758,3.989 c -1.476,-0.572 -3.134,-0.932 -5.142,-0.932 -4.818,0 -6.547,1.869 -6.547,9.101 0,6.87 1.586,8.775 6.547,8.775 2.008,0 3.558,-0.359 4.926,-0.865 z m -21.793,0.648 h -4.998 V 0 h 4.998 z M -152.553,0 h 6.655 v 25.747 h -4.457 V 5.862 h -0.18 l -8.709,19.885 h -6.61 V 0 h 4.458 v 19.308 h 0.181 z m -23.441,25.747 V 9.348 c 0,-4.21 -1.549,-5.431 -4.791,-5.431 -3.135,0 -4.744,1.113 -4.744,5.683 v 16.147 h -5 V 9.06 c 0,-6.867 3.521,-9.493 9.599,-9.493 6.297,0 9.889,2.837 9.889,9.637 v 16.543 z m -41.975,0 V 0 h 4.387 v 19.02 h 0.18 l 4.422,-9.996 h 4.25 l 4.386,10.032 h 0.18 V 0 h 4.521 v 25.747 h -5.783 l -5.178,-11.688 h -0.179 l -5.223,11.688 z m -14.885,-21.83 c -4.214,0 -5.296,2.193 -5.296,9.028 0,6.909 1.082,8.884 5.296,8.884 4.206,0 5.286,-2.013 5.286,-8.884 0,-6.835 -1.08,-9.028 -5.286,-9.028 m 0.036,-4.35 c 7.113,0 10.455,2.911 10.455,13.343 0,10.284 -3.449,13.269 -10.455,13.269 -7.086,0 -10.537,-3.022 -10.537,-13.377 0,-10.324 3.451,-13.235 10.537,-13.235 M -263.68,0 h 4.998 v 11.293 h 1.332 L -250.271,0 h 5.908 l -8.889,13.486 8.492,12.261 h -5.609 l -6.873,-10.429 h -1.44 v 10.429 h -4.998 z m -22.261,21.217 h 0.179 l 3.17,-11.581 h -6.474 z M -279.934,0 h 5.393 l -7.834,25.747 h -6.729 L -296.91,0 h 5.25 l 1.441,5.431 h 8.772 z m -18.767,0 v 4.278 h -11.906 l 11.652,17.155 v 4.314 h -16.582 V 21.47 h 10.967 L -316.078,4.386 V 0 Z m -28.449,0 v 4.35 h -11.483 v 6.475 h 10.006 v 4.278 h -10.006 v 6.293 h 11.483 v 4.351 h -16.473 V 0 Z m -25.749,13.054 c 0,-7.34 -1.549,-8.704 -5.649,-8.704 h -3.638 v 17.046 h 3.603 c 4.065,0 5.684,-1.58 5.684,-8.342 m 5.136,-0.073 c 0,9.353 -2.302,12.766 -11.15,12.766 h -8.267 V 0 h 8.342 c 8.165,0 11.075,3.594 11.075,12.981 m -33.839,8.236 h 0.18 l 3.166,-11.581 h -6.475 z M -375.596,0 h 5.395 l -7.841,25.747 h -6.726 L -392.571,0 h 5.25 l 1.439,5.431 h 8.776 z m -17.983,0 v 4.35 h -10.719 v 21.397 h -4.993 V 0 Z m -18.7,25.747 h -5.072 l -5.5,-21.397 h -0.18 l -5.469,21.397 h -5.287 L -426.809,0 h 7.517 z M -448.42,13.054 c 0,-7.34 -1.547,-8.704 -5.649,-8.704 h -3.634 v 17.046 h 3.598 c 4.066,0 5.685,-1.58 5.685,-8.342 m 5.138,-0.073 c 0,9.353 -2.3,12.766 -11.147,12.766 h -8.269 V 0 h 8.341 c 8.165,0 11.075,3.594 11.075,12.981 m -33.839,8.236 h 0.18 l 3.164,-11.581 h -6.473 z M -471.116,0 h 5.396 l -7.841,25.747 h -6.726 L -488.089,0 h 5.25 l 1.439,5.431 h 8.773 z m -24.597,17.944 c 0,-2.77 -0.899,-3.743 -4.353,-3.743 h -3.562 v 7.269 h 3.562 c 3.237,0 4.353,-0.716 4.353,-3.526 m 5.102,0.143 c 0,4.999 -2.118,7.66 -9.131,7.66 h -8.882 V 0 h 4.996 v 10.104 h 3.814 l 5,-10.104 h 5.751 l -5.679,10.861 c 2.91,1.148 4.131,3.665 4.131,7.226 m -28.155,7.66 V 9.348 c 0,-4.21 -1.546,-5.431 -4.784,-5.431 -3.133,0 -4.75,1.113 -4.75,5.683 v 16.147 h -4.994 V 9.06 c 0,-6.867 3.521,-9.493 9.6,-9.493 6.294,0 9.887,2.837 9.887,9.637 v 16.543 z"
             style="fill:#1d1d1b;fill-opacity:1;fill-rule:nonzero;stroke:none"
             id="path26" />
        </g>
        <g
           id="g28"
           transform="translate(577.5073,175.8633)">
          <path
             d="m 0,0 h 0.145 l 4.673,-14.746 h -9.492 z m 7.557,-23.302 h 2.881 L 1.945,2.445 h -3.664 l -8.457,-25.747 h 2.811 l 1.972,6.296 H 5.539 Z M -16.426,2.445 v -23.911 c 0,-3.526 -1.08,-5.286 -4.357,-6.26 l 0.719,-2.3 c 4.89,1.402 6.367,3.92 6.367,8.774 V 2.445 Z m -7.879,0 h -2.729 v -25.747 h 2.729 z m -13.841,-25.747 h 3.99 V 2.445 h -2.524 v -22.797 h -0.142 L -48.367,2.445 h -4.026 v -25.747 h 2.512 v 22.833 h 0.145 z m -19.713,0 v 2.336 h -12.698 v 9.497 h 11.006 v 2.297 h -11.006 v 9.283 h 12.698 v 2.334 h -15.426 v -25.747 z m -30.934,0 h 3.854 l 7.728,25.747 h -2.658 l -6.834,-23.085 h -0.145 l -6.908,23.085 h -2.799 z m -19.955,1.975 c -5.359,0 -7.018,3.022 -7.018,10.971 0,8.058 1.659,10.827 7.018,10.827 5.357,0 7.014,-2.805 7.014,-10.827 0,-7.949 -1.657,-10.971 -7.014,-10.971 m 0.035,-2.404 c 6.764,0 9.852,3.267 9.852,13.339 0,9.929 -3.198,13.269 -9.852,13.269 -6.726,0 -9.924,-3.377 -9.924,-13.377 0,-9.964 3.198,-13.231 9.924,-13.231 m -11.762,0.429 v 2.336 h -12.013 V 2.445 h -2.729 v -25.747 z m -19.82,6.795 c 0,4.352 -1.539,5.755 -7.584,7.626 -3.35,1.008 -4.961,1.835 -4.961,5 0,3.129 1.432,4.352 5.287,4.352 2.198,0 3.989,-0.396 5.934,-1.078 l 0.465,2.3 c -1.938,0.752 -4.28,1.184 -6.506,1.184 -5.436,0 -7.988,-2.37 -7.988,-6.939 0,-4.351 2.304,-6.042 7.123,-7.373 4.347,-1.224 5.464,-2.339 5.464,-5.324 0,-3.67 -1.683,-4.604 -5.394,-4.604 -2.377,0 -4.82,0.433 -6.799,1.151 l -0.574,-2.335 c 2.123,-0.79 4.322,-1.184 7.051,-1.184 6.185,0 8.482,2.008 8.482,7.224 M -177.51,0 h 0.141 l 4.676,-14.746 h -9.494 z m 7.552,-23.302 h 2.876 l -8.487,25.747 h -3.67 l -8.451,-25.747 h 2.804 l 1.98,6.296 h 10.932 z m -36.538,0 h 2.728 v 12.048 h 2.229 l 8.632,-12.048 h 3.309 l -9.53,13.306 9.314,12.441 h -3.165 l -8.38,-11.362 h -2.409 V 2.445 h -2.728 z m -7.127,25.747 h -2.728 v -25.747 h 2.728 z m -7.192,-25.747 v 2.336 h -12.012 V 2.445 h -2.729 v -25.747 z m -23.515,18.808 c 0,-3.453 -1.943,-4.569 -5.109,-4.569 h -5.756 v 9.174 h 5.756 c 3.202,0 5.109,-1.043 5.109,-4.605 m 0.467,-11.617 c 0,-3.345 -1.726,-4.855 -5.252,-4.855 h -6.08 v 9.642 h 6.08 c 3.526,0 5.252,-1.475 5.252,-4.787 m 2.765,-0.177 c 0,3.417 -1.148,5.214 -3.627,6.148 v 0.144 c 2.155,0.896 3.159,2.767 3.159,5.755 0,4.424 -2.368,6.686 -8.161,6.686 h -8.197 v -25.747 h 8.197 c 6.081,0 8.629,2.156 8.629,7.014 m -23.339,18.733 h -2.729 v -16.903 c 0,-4.893 -2.087,-6.905 -6.226,-6.905 -4.137,0 -6.187,1.976 -6.187,6.905 V 2.445 h -2.73 v -17.191 c 0,-6.293 3.197,-8.985 8.738,-8.985 5.757,0 9.134,2.728 9.134,9.381 z m -35.426,-2.37 h 5.109 c 4.029,0 6.008,-0.863 6.008,-5.179 0,-4.461 -2.087,-5.254 -6.008,-5.254 h -5.109 z m 0,-12.766 h 5.324 c 5.901,0 8.559,2.153 8.559,7.765 0,5.541 -2.658,7.371 -8.559,7.371 h -8.052 v -25.747 h 2.728 z m -8.199,-10.611 v 2.336 h -12.696 v 9.497 h 11.005 v 2.297 h -11.005 v 9.283 h 12.696 v 2.334 h -15.424 v -25.747 z m -35.137,23.413 h 5.288 c 4.03,0 6.009,-0.827 6.009,-4.928 0,-4.246 -2.087,-5 -6.009,-5 h -5.288 z m 0,-12.228 h 5.72 l 5.758,-11.185 h 3.124 l -6.002,11.474 c 3.703,0.682 5.462,2.872 5.462,7.19 0,5.325 -2.657,7.083 -8.558,7.083 h -8.233 v -25.747 h 2.729 z"
             style="fill:#1d1d1b;fill-opacity:1;fill-rule:nonzero;stroke:none"
             id="path30" />
        </g>
      </g>
    </g>
  </g>
</svg>
