<svg xmlns="http://www.w3.org/2000/svg" xmlns:xlink="http://www.w3.org/1999/xlink" width="52.75" height="52.75" viewBox="0 0 52.75 52.75">
  <defs>
    <clipPath>
      <rect width="52.75" height="52.75" fill="#fff"/>
    </clipPath>
  </defs>
  <g clip-path="url(#clip-path)">
    <path d="M58.869,53.333A5.535,5.535,0,1,0,64.4,58.869a5.536,5.536,0,0,0-5.536-5.536" transform="translate(-32.494 -32.494)" fill="#fff"/>
    <path d="M59.218,36.477a5.5,5.5,0,0,0-3.152-3.152,9.19,9.19,0,0,0-3.084-.572c-1.751-.08-2.276-.1-6.711-.1s-4.959.017-6.71.1a9.19,9.19,0,0,0-3.084.572,5.5,5.5,0,0,0-3.152,3.152,9.19,9.19,0,0,0-.572,3.084c-.08,1.751-.1,2.276-.1,6.711s.017,4.959.1,6.71a9.19,9.19,0,0,0,.572,3.084,5.5,5.5,0,0,0,3.152,3.152,9.191,9.191,0,0,0,3.084.572c1.751.08,2.276.1,6.71.1s4.96-.017,6.711-.1a9.191,9.191,0,0,0,3.084-.572,5.5,5.5,0,0,0,3.152-3.152,9.2,9.2,0,0,0,.572-3.084c.08-1.751.1-2.276.1-6.71s-.017-4.959-.1-6.711a9.2,9.2,0,0,0-.572-3.084M46.272,54.8A8.528,8.528,0,1,1,54.8,46.272,8.528,8.528,0,0,1,46.272,54.8m8.865-15.4a1.993,1.993,0,1,1,1.993-1.993A1.993,1.993,0,0,1,55.137,39.4" transform="translate(-19.897 -19.897)" fill="#fff"/>
    <path d="M26.375,0A26.375,26.375,0,1,0,52.75,26.375,26.375,26.375,0,0,0,26.375,0M42.881,33.222a12.192,12.192,0,0,1-.772,4.031,8.49,8.49,0,0,1-4.857,4.857,12.192,12.192,0,0,1-4.031.772c-1.771.08-2.337.1-6.847.1s-5.076-.019-6.847-.1A12.188,12.188,0,0,1,15.5,42.11a8.492,8.492,0,0,1-4.857-4.857,12.193,12.193,0,0,1-.772-4.031c-.08-1.771-.1-2.337-.1-6.847s.019-5.075.1-6.847A12.193,12.193,0,0,1,10.64,15.5,8.494,8.494,0,0,1,15.5,10.64a12.189,12.189,0,0,1,4.031-.772c1.771-.081,2.337-.1,6.847-.1s5.075.019,6.847.1a12.194,12.194,0,0,1,4.031.772A8.492,8.492,0,0,1,42.109,15.5a12.192,12.192,0,0,1,.772,4.031c.081,1.771.1,2.337.1,6.847s-.019,5.076-.1,6.847" fill="#fff"/>
  </g>
</svg>
