<svg xmlns="http://www.w3.org/2000/svg" xmlns:xlink="http://www.w3.org/1999/xlink" width="53" height="53" viewBox="0 0 53 53">
  <defs>
    <clipPath>
      <rect width="53" height="53" transform="translate(-0.125 0)" fill="none"/>
    </clipPath>
  </defs>
  <g transform="translate(0.302 0.177)">
    <g transform="translate(-0.177 -0.177)" clip-path="url(#clip-path)">
      <path d="M26.254,0A26.254,26.254,0,1,0,52.507,26.254,26.254,26.254,0,0,0,26.254,0M17.588,40.6c-1.868-.021-3.735-.016-5.6,0-.3,0-.389-.073-.389-.382q.013-9.983,0-19.966c0-.275.067-.374.359-.372,1.895.012,3.789.016,5.684,0,.364,0,.413.138.413.45q-.013,4.971-.005,9.943c0,3.287-.005,6.574.008,9.861,0,.366-.089.476-.468.472M14.831,17.026a3.729,3.729,0,1,1,3.732-3.746,3.755,3.755,0,0,1-3.732,3.746M42.214,40.171c0,.34-.095.429-.429.426q-2.8-.023-5.605,0c-.329,0-.4-.1-.4-.41q.016-5.176,0-10.353a9.3,9.3,0,0,0-.3-2.57A2.889,2.889,0,0,0,32.3,25.013c-2.215.117-3.367,1.214-3.65,3.467a12.94,12.94,0,0,0-.1,1.618c0,3.356,0,6.712.009,10.069,0,.334-.083.433-.425.43q-2.823-.025-5.646,0c-.3,0-.389-.079-.389-.384q.012-9.967,0-19.934c0-.329.107-.405.418-.4q2.681.02,5.362,0c.329,0,.414.1.406.415-.018.794-.006,1.588-.006,2.383.431-.485.786-.977,1.229-1.394a6.746,6.746,0,0,1,4.852-1.914,11.229,11.229,0,0,1,3.051.371,5.964,5.964,0,0,1,4.235,4.454,18.665,18.665,0,0,1,.564,5.1c.006,3.627-.011,7.253,0,10.88" transform="translate(0.184 0.184)" fill="#fff"/>
    </g>
  </g>
</svg>
