<svg xmlns="http://www.w3.org/2000/svg" xmlns:xlink="http://www.w3.org/1999/xlink" width="53" height="53" viewBox="0 0 53 53">
  <defs>
    <clipPath>
      <rect width="53" height="53" transform="translate(-0.445)" fill="none"/>
    </clipPath>
  </defs>
  <g transform="translate(0.445)">
    <g clip-path="url(#clip-path)">
      <path d="M26.277,0A26.277,26.277,0,1,0,52.555,26.277,26.277,26.277,0,0,0,26.277,0M40.365,23.372a19.174,19.174,0,0,1-3.415-.467,12.912,12.912,0,0,1-3.327-1.376s-.9-.6-.97-.637V32.345A11.648,11.648,0,0,1,31.98,35.9a10.723,10.723,0,0,1-1.872,3.11,10.607,10.607,0,0,1-3.435,2.582,10.091,10.091,0,0,1-4.23.935,10.446,10.446,0,0,1-5.7-1.716L16.73,40.8v.014a11.343,11.343,0,0,1-2.418-2.282A10.9,10.9,0,0,1,12.8,35.768v-.014a11.057,11.057,0,0,1-.6-3.706,10.215,10.215,0,0,1,1.233-4.689,10.953,10.953,0,0,1,2.391-2.948,10.371,10.371,0,0,1,7.991-2.338L23.8,27.758a4.668,4.668,0,0,0-1.45-.23,4.741,4.741,0,0,0,0,9.481,4.656,4.656,0,0,0,2.31-.61,4.74,4.74,0,0,0,2.385-3.763v-.012a.222.222,0,0,0,0-.048c0-.038.005-.07.005-.105.012-.283.012-.57.012-.86V10.023h5.583a4.708,4.708,0,0,0,.074,1.362h-.007a7.75,7.75,0,0,0,1.852,3.822,9,9,0,0,0,1.644,1.4,7.606,7.606,0,0,0,4.149,1.227Z" fill="#fff"/>
    </g>
  </g>
</svg>
