<svg xmlns="http://www.w3.org/2000/svg" xmlns:xlink="http://www.w3.org/1999/xlink" width="52.75" height="52.75" viewBox="0 0 52.75 52.75">
  <defs>
    <clipPath>
      <rect width="52.75" height="52.75" fill="#fff"/>
    </clipPath>
  </defs>
  <path d="M58.5,64.55l9.136-5.275L58.5,54Z" transform="translate(-35.642 -32.9)" fill="#fff"/>
  <g>
    <g clip-path="url(#clip-path)">
      <path d="M26.375,0A26.375,26.375,0,1,0,52.75,26.374,26.375,26.375,0,0,0,26.375,0m16.848,34.84a4.4,4.4,0,0,1-3.109,3.109c-2.743.735-13.739.735-13.739.735s-11,0-13.74-.735a4.4,4.4,0,0,1-3.109-3.109,45.776,45.776,0,0,1-.735-8.464,45.776,45.776,0,0,1,.735-8.464A4.4,4.4,0,0,1,12.635,14.8c2.743-.735,13.74-.735,13.74-.735s11,0,13.739.735a4.4,4.4,0,0,1,3.109,3.109,45.753,45.753,0,0,1,.735,8.464,45.753,45.753,0,0,1-.735,8.464" transform="translate(0 0.001)" fill="#fff"/>
    </g>
  </g>
</svg>
