<?xml version="1.0" standalone="no"?>
<!DOCTYPE svg PUBLIC "-//W3C//DTD SVG 20010904//EN"
 "http://www.w3.org/TR/2001/REC-SVG-20010904/DTD/svg10.dtd">
<svg version="1.0" xmlns="http://www.w3.org/2000/svg"
 width="2000.000000pt" height="2000.000000pt" viewBox="0 0 2000.000000 2000.000000"
 preserveAspectRatio="xMidYMid meet">
<metadata>
Created by potrace 1.14, written by Peter Selinger 2001-2017
</metadata>
<g transform="translate(0.000000,2000.000000) scale(0.100000,-0.100000)"
fill="#000000" stroke="none">
<path d="M9540 19993 c-2311 -108 -4480 -995 -6210 -2538 -291 -260 -665 -641
-925 -945 -1327 -1548 -2147 -3454 -2354 -5470 -42 -402 -46 -505 -46 -1045 1
-554 9 -717 56 -1131 210 -1860 943 -3627 2113 -5093 411 -514 916 -1032 1412
-1447 1545 -1292 3420 -2079 5429 -2279 305 -30 429 -36 830 -42 592 -8 1056
19 1565 93 1979 285 3759 1116 5270 2458 170 152 609 590 761 761 1197 1344
2001 2932 2353 4650 493 2411 94 4908 -1121 7004 -46 80 -52 86 -103 106 -58
23 -130 86 -130 114 0 9 -15 36 -34 61 -29 40 -44 50 -132 84 -183 70 -172 63
-293 196 -23 25 -41 49 -41 54 0 9 -17 27 -110 124 -73 76 -240 271 -240 281
0 4 -38 46 -83 92 -98 98 -136 147 -143 182 -2 14 -13 54 -24 89 -11 35 -20
70 -20 79 0 17 -68 105 -130 169 -49 50 -100 116 -100 128 0 6 -8 17 -18 24
-9 7 -26 30 -37 51 -11 21 -44 68 -73 105 -29 37 -59 81 -67 99 -8 17 -18 33
-23 35 -15 5 -61 95 -83 161 -11 34 -27 72 -35 84 -8 12 -23 47 -35 77 -18 50
-34 67 -177 192 -1576 1373 -3541 2214 -5617 2403 -348 32 -574 41 -960 39
-198 -1 -389 -3 -425 -5z m5034 -2583 c54 -48 71 -105 70 -235 0 -174 -46
-305 -149 -438 -109 -138 -303 -240 -408 -213 -38 9 -83 62 -101 118 -23 72
-21 215 4 313 34 132 83 218 180 316 108 110 218 169 311 169 51 0 63 -4 93
-30z m-727 -207 c-7 -6 -59 -39 -117 -72 l-105 -60 -3 91 c-1 50 2 96 7 101 5
5 56 36 113 68 l103 58 7 -87 c5 -62 4 -90 -5 -99z m-371 -208 c-2 -7 -40 -33
-83 -57 -43 -25 -95 -56 -116 -68 l-38 -22 3 98 3 98 115 66 115 67 3 -85 c2
-47 1 -91 -2 -97z m384 -277 c0 -413 -7 -512 -40 -601 -26 -70 -105 -158 -181
-204 -94 -56 -89 -59 -89 56 0 56 3 101 8 101 4 0 18 9 32 20 l25 19 5 433 5
432 110 63 c61 35 113 63 118 63 4 0 7 -172 7 -382z m-380 -220 l0 -383 -111
-63 c-61 -35 -112 -62 -114 -60 -2 2 -5 174 -7 382 l-3 380 105 62 c58 34 111
62 118 63 9 1 12 -82 12 -381z m-438 91 c11 -6 28 -29 39 -52 17 -38 19 -69
18 -342 l0 -300 -105 -60 c-58 -33 -110 -61 -115 -63 -5 -2 -9 106 -9 255 0
287 -3 302 -55 289 -40 -10 -81 -58 -94 -110 -7 -27 -11 -141 -11 -290 l0
-244 -112 -65 -113 -65 -3 377 c-1 207 0 381 2 387 6 15 213 134 220 126 3 -3
6 -19 6 -35 0 -27 3 -25 41 32 82 123 219 199 291 160z m-747 -490 c45 -40 65
-106 65 -215 l0 -82 -205 -118 c-201 -115 -205 -118 -205 -150 0 -43 18 -82
41 -89 38 -12 106 42 133 105 12 29 33 46 115 93 55 31 103 57 106 57 26 0
-45 -171 -105 -252 -92 -124 -259 -231 -363 -231 -97 0 -140 53 -159 196 -28
211 73 470 233 597 105 82 184 119 261 120 39 0 54 -5 83 -31z m-630 -306 c-8
-32 -55 -233 -105 -448 -50 -214 -94 -391 -98 -393 -4 -1 -61 -34 -127 -72
-66 -38 -123 -66 -126 -62 -4 4 -50 143 -103 308 -53 166 -98 309 -102 317 -5
13 28 35 238 153 8 5 50 -173 83 -348 12 -67 25 -116 28 -108 3 8 10 56 17
105 14 104 79 468 85 473 3 4 217 130 222 132 1 0 -5 -26 -12 -57z m2205 -310
l0 -358 44 75 c83 140 206 255 355 328 66 33 84 37 150 37 92 0 129 -21 165
-93 50 -100 51 -118 51 -722 l0 -564 -220 -128 c-121 -70 -223 -127 -227 -128
-4 0 -9 231 -10 514 -3 508 -3 515 -24 543 -42 55 -137 22 -211 -75 -67 -88
-67 -91 -71 -657 l-3 -511 -227 -131 c-125 -72 -228 -130 -229 -129 -1 0 -3
471 -4 1046 l-3 1045 224 132 c124 72 228 132 233 132 4 1 7 -160 7 -356z
m-740 -261 l0 -188 -197 -114 c-109 -63 -213 -123 -231 -133 l-32 -19 2 193 3
193 220 128 c121 70 223 127 228 128 4 0 7 -85 7 -188z m-2242 71 c110 -82
104 -378 -13 -589 -114 -205 -378 -357 -496 -287 -18 11 -41 41 -57 73 -25 51
-27 64 -26 180 0 107 4 136 27 205 36 109 89 196 168 274 143 143 315 205 397
144z m-709 -699 l1 -382 -115 -65 -115 -66 0 222 c0 122 -3 359 -6 527 l-7
305 114 66 114 65 6 -145 c4 -80 7 -318 8 -527z m-434 282 c30 -20 52 -61 61
-114 l6 -39 -107 -62 c-59 -33 -110 -61 -114 -61 -4 0 -12 14 -18 30 -15 40
-53 40 -114 1 -51 -32 -82 -85 -77 -133 5 -50 25 -55 125 -33 120 27 243 27
273 0 35 -31 50 -78 50 -152 -1 -83 -13 -139 -46 -210 -78 -164 -293 -339
-460 -373 -107 -23 -184 33 -187 137 l-2 47 108 63 107 62 14 -34 c17 -40 48
-51 91 -35 43 16 94 57 116 94 21 35 26 115 7 134 -16 16 -80 15 -158 -4 -80
-19 -177 -22 -208 -5 -42 23 -62 69 -62 147 0 194 140 398 349 508 110 57 191
68 246 32z m3381 -1552 c-4 -10 -436 -264 -450 -264 -3 0 -6 341 -6 758 l0
757 228 132 227 132 3 -752 c1 -414 0 -757 -2 -763z m-901 945 c79 -22 134
-102 154 -230 7 -39 11 -278 11 -606 l0 -541 -222 -129 c-122 -70 -225 -129
-230 -131 -4 -2 -9 230 -10 515 -3 485 -4 521 -22 547 -16 25 -22 28 -60 24
-83 -10 -162 -85 -202 -193 -17 -46 -19 -93 -22 -565 l-4 -515 -222 -127
c-123 -71 -226 -128 -229 -128 -4 0 -7 341 -7 758 l0 757 217 125 c119 69 220
127 225 128 4 2 8 -23 9 -55 0 -32 4 -67 8 -77 6 -17 9 -15 21 13 24 60 92
155 159 224 98 103 208 173 314 202 65 17 64 17 112 4z m-1347 -1205 l-3
-1046 -221 -128 -222 -128 -7 152 c-3 83 -5 554 -3 1046 l3 895 220 127 c121
70 223 128 228 128 4 0 6 -471 5 -1046z m-2200 966 c44 -27 68 -70 82 -147 25
-128 -10 -315 -82 -443 -94 -166 -291 -310 -426 -310 -173 0 -216 315 -80 584
71 141 190 252 335 312 71 29 127 30 171 4z m-759 -406 c51 -36 55 -66 59
-384 l4 -295 -110 -63 c-60 -34 -112 -62 -116 -62 -3 0 -6 115 -6 256 0 157
-4 263 -10 275 -15 27 -44 24 -84 -11 -57 -51 -61 -75 -58 -360 l2 -255 -109
-62 c-59 -35 -111 -63 -115 -63 -3 0 -6 114 -6 253 0 212 -2 256 -16 275 -20
29 -36 28 -74 -4 -63 -53 -65 -63 -70 -358 l-5 -268 -103 -60 c-57 -33 -105
-58 -106 -56 -2 2 -6 172 -9 379 l-7 377 106 61 c58 33 110 61 114 61 5 0 10
-15 12 -32 l3 -33 33 52 c85 132 232 212 292 158 23 -21 20 -23 75 59 86 129
236 208 304 160z m-1081 -376 l-3 -92 -108 -63 c-60 -35 -110 -63 -113 -63 -2
0 -4 42 -4 93 l0 92 108 62 c59 34 111 63 115 63 4 0 6 -41 5 -92z m7615 -903
l-196 -840 -246 -142 c-135 -78 -247 -140 -249 -139 -1 2 -90 277 -197 611
-115 359 -191 613 -186 618 5 5 109 67 232 138 154 88 226 125 230 116 18 -33
135 -587 169 -805 12 -71 30 -90 30 -30 0 86 171 1070 186 1075 5 2 101 57
214 122 113 66 206 118 207 117 1 -1 -86 -380 -194 -841z m-7613 323 l-1 -383
-105 -60 c-58 -33 -110 -61 -115 -63 -5 -2 -9 157 -9 380 l0 383 108 62 c59
34 110 62 115 62 4 1 7 -171 7 -381z m-432 142 c4 0 25 11 47 25 22 13 43 25
48 25 4 0 7 -40 7 -89 l0 -90 -50 -28 -50 -28 0 -193 c0 -212 2 -217 59 -187
l31 16 0 -85 0 -85 -77 -50 c-139 -92 -201 -102 -229 -36 -11 26 -14 87 -14
261 l0 226 -45 -26 -45 -27 0 93 0 93 45 25 45 25 0 100 0 101 108 61 107 62
3 -95 c1 -52 6 -94 10 -94z m3608 121 c23 -10 51 -33 64 -51 51 -72 53 -86 60
-670 4 -300 11 -558 14 -575 7 -30 7 -30 -185 -140 -105 -60 -196 -110 -203
-110 -6 0 -15 29 -21 64 l-10 64 -53 -87 c-130 -212 -377 -385 -553 -386 -75
0 -117 21 -156 79 -36 53 -47 108 -47 221 1 129 26 230 89 347 108 203 276
361 564 528 l106 61 3 90 c3 118 -8 139 -69 139 -33 -1 -56 -9 -92 -34 -61
-42 -97 -97 -118 -179 l-16 -66 -209 -121 c-141 -82 -210 -117 -212 -108 -6
25 29 176 58 250 93 240 335 475 640 622 167 81 266 98 346 62z m-1427 -703
c0 -4 40 16 88 43 49 28 96 55 105 60 17 9 18 -2 18 -174 l0 -184 -105 -59
-104 -59 -1 -366 c0 -335 2 -369 18 -388 15 -20 20 -21 52 -10 19 7 52 23 72
36 21 13 40 23 43 23 3 0 5 -74 5 -164 l0 -164 -42 -34 c-163 -132 -370 -238
-464 -238 -40 0 -51 5 -79 35 -20 21 -38 54 -45 82 -8 31 -14 199 -17 481 -3
237 -8 432 -12 432 -3 0 -19 -8 -36 -18 -16 -10 -51 -30 -77 -45 l-48 -28 0
185 0 184 85 48 85 48 0 197 0 197 223 129 222 128 6 -185 c4 -102 7 -188 8
-192z m-2601 239 c14 -14 26 -41 29 -64 l5 -40 -98 -57 -99 -56 -16 22 c-12
15 -23 19 -41 15 -55 -14 -105 -76 -92 -112 8 -20 44 -19 133 5 82 22 152 26
182 10 80 -43 60 -235 -40 -371 -116 -157 -361 -280 -447 -224 -28 18 -54 70
-54 107 0 19 19 34 97 78 119 67 113 65 113 46 0 -27 36 -38 72 -23 69 29 115
104 84 135 -13 13 -24 12 -100 -7 -101 -25 -183 -27 -213 -6 -72 51 -39 244
61 365 75 89 206 178 298 201 49 12 99 3 126 -24z m-648 -81 l0 -94 -102 -58
c-57 -33 -109 -60 -115 -62 -10 -3 -13 19 -13 86 l0 90 113 66 c61 36 113 66
115 66 1 0 2 -42 2 -94z m2450 -244 l0 -188 -220 -127 c-121 -70 -222 -127
-225 -127 -3 0 -5 84 -5 188 l0 187 218 126 c119 70 220 127 225 128 4 1 7
-84 7 -187z m-2874 116 c-7 -18 -34 -80 -60 -138 l-47 -105 -116 -66 -116 -66
-58 66 c-32 36 -59 68 -59 71 0 3 42 28 92 57 l92 52 27 -32 27 -32 10 25 c36
94 39 97 124 148 45 28 86 51 91 51 4 1 1 -14 -7 -31z m432 -708 l-3 -125
-105 -62 c-58 -34 -108 -62 -112 -62 -5 -1 -8 171 -8 382 l0 382 108 61 107
61 8 -256 c4 -141 6 -312 5 -381z m7785 607 c87 -51 135 -136 163 -287 26
-143 12 -362 -34 -529 l-17 -65 -120 0 c-101 -1 -127 -4 -166 -22 -26 -12 -60
-25 -77 -28 l-29 -7 5 158 c9 303 -37 413 -154 368 -96 -36 -171 -138 -205
-275 -19 -77 -19 -417 0 -483 16 -54 59 -107 89 -107 17 0 20 -9 25 -87 3 -49
15 -117 26 -153 12 -36 21 -70 21 -77 0 -16 -130 -78 -205 -97 -122 -32 -218
-17 -290 46 -87 77 -124 191 -132 403 -6 172 8 274 58 432 63 197 159 360 300
508 140 145 347 279 499 320 83 22 187 15 243 -18z m-8196 -277 c37 -22 60
-61 69 -117 l6 -40 -105 -61 c-58 -34 -108 -62 -110 -62 -3 0 -11 15 -17 34
-13 39 -30 49 -63 37 -33 -13 -64 -51 -81 -98 -35 -98 -28 -312 10 -354 37
-41 106 15 132 105 l18 61 103 58 c56 33 104 57 107 54 10 -10 -27 -133 -61
-203 -103 -211 -388 -378 -493 -289 -43 36 -64 96 -70 204 -10 195 49 371 172
508 85 95 239 182 321 183 17 0 44 -9 62 -20z m2862 -990 l1 -646 -207 -119
c-113 -66 -217 -126 -230 -133 l-23 -13 2 762 3 761 220 127 220 127 6 -110
c4 -61 7 -401 8 -756z m3383 838 c1 -2 4 -246 7 -544 l6 -541 149 359 c83 197
157 364 165 372 23 19 471 276 471 269 0 -3 -85 -178 -190 -390 l-189 -385 41
-60 c65 -97 378 -591 376 -593 -4 -4 -450 -260 -475 -274 -22 -11 -26 -5 -129
200 -58 117 -109 208 -114 203 -4 -5 -31 -52 -59 -105 l-51 -96 0 -204 -1
-204 -213 -122 c-118 -68 -217 -123 -220 -123 -3 0 -6 450 -6 999 l0 999 208
121 c190 111 218 126 224 119z m-7060 -68 c110 -31 163 -147 161 -355 -3 -362
-195 -665 -500 -791 -173 -71 -286 16 -313 240 -18 145 12 328 75 471 88 201
282 382 457 429 66 18 74 18 120 6z m2938 -1067 c0 -605 -3 -756 -15 -838 -43
-283 -155 -501 -354 -688 -121 -113 -355 -262 -479 -305 l-33 -11 2 -951 2
-951 -207 -120 c-113 -65 -208 -119 -210 -119 -2 0 -7 30 -11 67 l-7 67 -35
-66 c-72 -138 -191 -250 -342 -326 -134 -67 -260 -55 -325 31 -76 99 -109 238
-109 462 -1 365 112 679 327 912 145 156 372 268 454 224 l22 -12 0 315 0 314
93 53 c142 81 136 74 89 98 -53 27 -89 76 -113 152 -33 104 -45 90 199 231
184 107 219 124 227 111 32 -50 44 -58 83 -57 89 3 221 113 261 219 28 75 55
365 34 365 -5 0 -21 -28 -38 -63 -39 -82 -183 -228 -282 -286 -215 -127 -375
-103 -463 69 -69 135 -84 416 -35 655 54 261 179 499 347 661 173 166 380 246
452 174 l21 -21 10 67 10 66 205 119 c113 65 208 119 213 119 4 0 7 -332 7
-737z m3410 -70 c0 -439 3 -888 6 -998 l6 -200 -214 -121 c-117 -67 -214 -119
-215 -115 -1 3 -4 33 -8 65 l-7 59 -39 -72 c-96 -173 -314 -339 -472 -357
-144 -17 -242 88 -282 301 -63 339 15 732 200 1010 132 199 360 365 505 369
25 0 53 -3 63 -8 16 -8 17 10 17 305 l0 314 213 122 c116 67 215 123 220 123
4 0 7 -359 7 -797z m-4930 320 l0 -188 -223 -127 c-122 -71 -226 -128 -230
-128 -4 0 -6 84 -5 186 l3 186 220 129 c121 70 223 128 228 128 4 1 7 -83 7
-186z m-741 -1834 l1 -496 -217 -125 c-120 -69 -220 -124 -222 -122 -3 2 -7
34 -10 72 l-7 67 -31 -60 c-70 -135 -175 -243 -318 -327 -110 -64 -188 -84
-267 -67 -44 9 -62 20 -104 64 -55 56 -84 117 -112 240 -23 101 -22 409 1 530
55 280 164 507 327 678 157 166 370 272 464 233 l36 -15 0 332 1 332 222 127
222 128 6 -548 c3 -301 7 -770 8 -1043z m745 691 l6 -755 -230 -132 -230 -132
2 761 3 762 220 127 c121 70 221 126 221 125 1 0 4 -341 8 -756z m3338 70 c48
-14 93 -66 113 -132 24 -79 40 -1137 18 -1155 -30 -24 -354 -205 -359 -200 -3
2 -7 22 -10 43 -13 94 -13 94 -48 26 -134 -249 -462 -455 -619 -388 -130 55
-163 279 -77 518 81 223 265 410 593 602 l97 57 0 75 c0 43 -6 90 -14 109 -13
30 -20 35 -48 35 -20 0 -56 -13 -88 -33 -65 -38 -115 -113 -125 -187 l-7 -49
-200 -116 c-111 -63 -203 -113 -206 -110 -11 10 18 143 48 228 86 236 320 467
621 611 144 70 231 88 311 66z m5928 -505 c662 -102 1114 -437 1114 -825 0
-152 -60 -290 -180 -414 -91 -94 -143 -130 -429 -296 l-260 -150 -46 52 c-26
29 -45 56 -43 59 2 4 84 53 181 110 259 150 280 165 363 248 123 123 178 254
167 395 -7 85 -25 141 -73 218 l-35 57 26 50 c29 58 30 70 12 96 -13 17 -17
17 -74 -15 l-61 -33 -31 26 c-43 36 -189 123 -263 156 -154 70 -362 121 -578
142 -173 16 -442 4 -577 -26 -18 -4 -26 2 -41 32 -31 61 -35 91 -15 97 19 5
207 32 278 40 89 9 464 -3 565 -19z m-1147 -209 c14 -42 14 -44 -4 -49 -17 -5
-19 1 -19 44 0 27 2 49 4 49 2 0 11 -20 19 -44z m-6123 -76 c106 -54 170 -242
170 -499 -1 -491 -230 -935 -568 -1103 -97 -48 -176 -61 -217 -34 l-25 16 -2
-316 -3 -316 -155 -90 c-85 -49 -183 -105 -217 -125 l-63 -35 0 994 1 993 200
115 c110 63 207 116 215 118 11 3 14 -11 14 -67 0 -39 3 -71 8 -70 4 0 21 30
39 67 97 204 361 395 521 377 23 -3 60 -14 82 -25z m4942 -512 c14 -11 14 -22
5 -76 l-11 -62 -660 -384 c-4911 -2851 -7001 -4065 -7046 -4096 -173 -118
-280 -293 -280 -459 0 -221 161 -421 459 -571 202 -101 530 -170 812 -170 290
0 634 75 826 180 57 31 4727 2743 6771 3932 l394 228 39 -27 c36 -25 39 -31
35 -62 -3 -19 -9 -37 -13 -41 -17 -16 -7092 -4120 -7163 -4155 -41 -21 -133
-57 -205 -80 -662 -217 -1479 -113 -1928 245 -173 138 -277 323 -277 495 0
176 113 372 292 505 46 34 1807 1063 3913 2287 2107 1223 3868 2246 3915 2274
92 53 98 55 122 37z m1892 -1211 c57 -39 59 -41 37 -51 -19 -8 -25 -6 -33 9
-6 10 -29 36 -52 58 -46 44 -37 41 48 -16z m-9815 -3 c152 -45 230 -236 218
-529 -12 -273 -79 -484 -225 -705 -139 -210 -417 -420 -629 -475 -127 -33
-245 -8 -308 66 -132 156 -152 521 -45 839 128 383 457 711 805 805 67 18 121
18 184 -1z"/>
<path d="M14280 17172 c-51 -51 -70 -118 -70 -246 0 -154 33 -202 107 -157 63
39 100 167 90 313 -9 132 -53 164 -127 90z"/>
<path d="M12045 15901 c-40 -24 -61 -49 -80 -94 -15 -36 -20 -87 -9 -87 4 0
44 21 90 48 76 43 84 50 84 77 0 33 -24 75 -43 75 -7 0 -25 -8 -42 -19z"/>
<path d="M10611 15064 c-63 -53 -82 -113 -82 -259 0 -130 16 -175 60 -175 40
0 94 48 117 103 12 29 18 78 21 162 4 102 1 125 -14 155 -24 46 -59 51 -102
14z"/>
<path d="M8400 13782 c-51 -50 -70 -118 -70 -244 0 -103 15 -163 45 -174 42
-16 102 27 132 96 24 53 30 273 10 323 -14 32 -21 37 -48 37 -23 0 -41 -10
-69 -38z"/>
<path d="M9605 11958 c-49 -29 -110 -73 -135 -98 -75 -75 -112 -180 -90 -260
18 -67 65 -77 146 -30 118 67 180 203 172 373 l-3 67 -90 -52z"/>
<path d="M3858 11390 c-92 -61 -137 -170 -145 -350 -11 -241 47 -341 165 -281
107 54 162 195 162 411 0 116 -14 189 -41 225 -29 36 -82 34 -141 -5z"/>
<path d="M6450 10638 c-92 -46 -164 -149 -197 -285 -23 -97 -23 -328 0 -405
18 -61 62 -108 100 -108 33 0 102 38 146 80 94 91 125 214 119 478 -3 152 -6
183 -23 217 -18 36 -24 40 -60 43 -26 2 -56 -5 -85 -20z"/>
<path d="M5589 7627 c-138 -71 -208 -237 -209 -497 0 -188 33 -303 92 -324 41
-14 114 18 174 79 93 92 118 206 112 494 -4 198 -15 248 -56 270 -31 17 -45
14 -113 -22z"/>
<path d="M9879 10105 c-144 -75 -217 -271 -206 -550 6 -141 23 -213 58 -251
70 -75 243 44 291 199 21 66 23 91 23 307 0 211 -2 239 -19 270 -10 19 -24 38
-30 42 -21 14 -71 7 -117 -17z"/>
<path d="M4182 9329 c-146 -72 -210 -216 -219 -486 -10 -285 40 -410 150 -374
50 17 123 72 158 119 67 91 95 256 86 497 -6 165 -20 228 -55 255 -33 27 -48
25 -120 -11z"/>
<path d="M8515 8838 c-144 -85 -204 -153 -225 -254 -19 -89 10 -154 67 -154
56 0 160 87 198 165 33 68 62 285 38 285 -5 0 -39 -19 -78 -42z"/>
<path d="M7106 8495 c-172 -59 -235 -218 -223 -560 6 -159 15 -207 48 -249 39
-50 132 -23 209 60 82 89 110 185 117 404 4 132 2 178 -11 228 -28 109 -67
142 -140 117z"/>
<path d="M4152 6814 c-134 -66 -191 -200 -199 -466 -6 -170 5 -266 38 -329 33
-65 70 -74 148 -34 55 27 91 66 126 134 45 90 57 155 62 351 6 220 -7 296 -57
343 -37 34 -53 34 -118 1z"/>
</g>
</svg>
